<?xml version="1.0" encoding="UTF-8"?>
<!DOCTYPE svg PUBLIC "-//W3C//DTD SVG 1.1//EN" "http://www.w3.org/Graphics/SVG/1.1/DTD/svg11.dtd">
<!-- Creator: CorelDRAW X7 -->
<svg xmlns="http://www.w3.org/2000/svg" xml:space="preserve" width="58.9282mm" height="15.2217mm" version="1.1" style="shape-rendering:geometricPrecision; text-rendering:geometricPrecision; image-rendering:optimizeQuality; fill-rule:evenodd; clip-rule:evenodd"
viewBox="0 0 2708 700"
 xmlns:xlink="http://www.w3.org/1999/xlink">
 <defs>
  <style type="text/css">
   <![CDATA[
    .fil0 {fill:#FEFEFE;fill-rule:nonzero}
   ]]>
  </style>
 </defs>
 <g id="Слой_x0020_1">
  <metadata id="CorelCorpID_0Corel-Layer"/>
  <path class="fil0" d="M109 0c72,0 108,45 108,134 0,90 -36,134 -108,134 -73,0 -109,-44 -109,-134 0,-89 36,-134 109,-134zm0 21c-20,0 -30,38 -30,113 0,76 10,113 30,113 19,0 29,-37 29,-113 0,-75 -10,-113 -29,-113zm320 -17l-10 55 -123 0 -10 56c21,-15 43,-22 65,-22 27,0 49,8 66,24 18,16 26,36 26,61 0,28 -9,49 -29,66 -19,16 -46,24 -79,24 -59,0 -89,-20 -89,-61 0,-6 1,-14 2,-22l34 -7c-2,10 -3,19 -3,28 0,26 14,39 41,39 33,0 49,-24 49,-70 0,-33 -14,-50 -42,-50 -16,0 -31,9 -44,27l-30 -7 24 -141 152 0zm155 -4c73,0 109,45 109,134 0,90 -36,134 -109,134 -72,0 -108,-44 -108,-134 0,-89 36,-134 108,-134zm0 21c-19,0 -29,38 -29,113 0,76 10,113 29,113 20,0 30,-37 30,-113 0,-75 -10,-113 -30,-113zm264 178l35 -7c-2,7 -2,14 -2,20 0,24 11,35 34,35 15,0 26,-6 32,-18 6,-12 11,-36 14,-73 -16,14 -32,21 -49,21 -22,0 -41,-8 -56,-23 -14,-16 -22,-37 -22,-62 0,-27 9,-50 27,-67 17,-17 40,-25 69,-25 73,0 110,44 110,132 0,42 -11,76 -32,100 -21,24 -50,36 -86,36 -50,0 -74,-18 -74,-55 0,-4 0,-8 0,-14zm88 -178c-18,0 -28,24 -28,71 0,39 8,59 25,59 20,0 30,-21 30,-63 0,-45 -9,-67 -27,-67zm331 51l-34 5c1,-8 2,-15 2,-21 0,-24 -11,-35 -33,-35 -16,0 -27,6 -34,18 -6,13 -11,37 -14,74 16,-14 33,-21 50,-21 22,0 41,8 55,24 15,15 22,35 22,58 0,29 -8,52 -26,69 -17,17 -40,26 -69,26 -74,0 -111,-44 -111,-130 0,-43 11,-76 32,-101 21,-25 50,-38 86,-38 50,0 75,20 75,60 0,3 0,7 -1,12zm-85 47c-20,0 -30,20 -30,60 0,46 9,69 28,69 18,0 27,-24 27,-73 0,-38 -8,-56 -25,-56zm323 -47l-34 5c1,-8 2,-15 2,-21 0,-24 -11,-35 -33,-35 -16,0 -27,6 -33,18 -7,13 -11,37 -14,74 15,-14 32,-21 49,-21 22,0 41,8 56,24 14,15 22,35 22,58 0,29 -9,52 -26,69 -18,17 -41,26 -70,26 -74,0 -111,-44 -111,-130 0,-43 11,-76 32,-101 22,-25 50,-38 86,-38 50,0 75,20 75,60 0,3 0,7 -1,12zm-85 47c-20,0 -30,20 -30,60 0,46 9,69 28,69 19,0 28,-24 28,-73 0,-38 -9,-56 -26,-56zm440 -47l-34 5c1,-8 2,-15 2,-21 0,-24 -11,-35 -33,-35 -16,0 -27,6 -33,18 -7,13 -11,37 -14,74 15,-14 32,-21 49,-21 22,0 41,8 56,24 14,15 22,35 22,58 0,29 -9,52 -26,69 -18,17 -41,26 -70,26 -74,0 -111,-44 -111,-130 0,-43 11,-76 32,-101 21,-25 50,-38 86,-38 50,0 75,20 75,60 0,3 0,7 -1,12zm-85 47c-20,0 -30,20 -30,60 0,46 9,69 28,69 19,0 28,-24 28,-73 0,-38 -9,-56 -26,-56zm233 -119c72,0 108,45 108,134 0,90 -36,134 -108,134 -73,0 -109,-44 -109,-134 0,-89 36,-134 109,-134zm0 21c-20,0 -30,38 -30,113 0,76 10,113 30,113 20,0 29,-37 29,-113 0,-75 -9,-113 -29,-113zm264 178l34 -7c-1,7 -2,14 -2,20 0,24 12,35 34,35 16,0 27,-6 33,-18 6,-12 10,-36 14,-73 -16,14 -33,21 -49,21 -23,0 -42,-8 -56,-23 -15,-16 -22,-37 -22,-62 0,-27 9,-50 26,-67 18,-17 41,-25 70,-25 73,0 110,44 110,132 0,42 -11,76 -32,100 -21,24 -50,36 -87,36 -49,0 -74,-18 -74,-55 0,-4 1,-8 1,-14zm88 -178c-19,0 -28,24 -28,71 0,39 8,59 24,59 21,0 31,-21 31,-63 0,-45 -9,-67 -27,-67zm240 -21c72,0 108,45 108,134 0,90 -36,134 -108,134 -72,0 -109,-44 -109,-134 0,-89 37,-134 109,-134zm0 21c-20,0 -30,38 -30,113 0,76 10,113 30,113 20,0 29,-37 29,-113 0,-75 -9,-113 -29,-113zm-2491 411c72,0 108,44 108,133 0,90 -36,134 -108,134 -73,0 -109,-44 -109,-134 0,-89 36,-133 109,-133zm0 20c-20,0 -30,38 -30,113 0,76 10,114 30,114 19,0 29,-38 29,-114 0,-75 -10,-113 -29,-113zm328 51l-35 5c2,-8 3,-15 3,-21 0,-24 -11,-35 -33,-35 -16,0 -27,6 -34,18 -6,13 -11,38 -14,74 16,-14 32,-21 50,-21 22,0 40,8 55,24 15,15 22,35 22,59 0,28 -8,51 -26,68 -17,17 -40,26 -69,26 -74,0 -111,-44 -111,-130 0,-43 11,-76 32,-101 21,-25 50,-38 85,-38 51,0 76,20 76,60 0,3 0,7 -1,12zm-86 47c-19,0 -29,20 -29,60 0,46 9,69 28,69 18,0 27,-24 27,-73 0,-38 -8,-56 -26,-56zm328 -115l0 40c-45,59 -67,127 -67,205l-1 15 -84 0c5,-75 35,-142 91,-200l-134 0 9 -60 186 0zm169 195l35 -7c-1,7 -2,14 -2,20 0,24 11,36 34,36 15,0 26,-6 32,-19 6,-12 11,-36 14,-73 -16,14 -32,22 -49,22 -22,0 -41,-8 -55,-24 -15,-16 -22,-37 -22,-61 0,-28 8,-51 26,-68 17,-16 41,-25 69,-25 73,0 110,44 110,132 0,43 -10,76 -32,100 -21,24 -50,36 -86,36 -50,0 -74,-18 -74,-55 0,-3 0,-8 0,-14zm88 -178c-18,0 -27,24 -27,72 0,39 8,58 24,58 20,0 30,-21 30,-63 0,-45 -9,-67 -27,-67zm337 189l-29 0 0 54 -73 0 0 -54 -97 0 0 -32 121 -174 49 0 0 177 29 0 0 29zm-165 -29l63 0 0 -100 -63 100zm400 -177l0 40c-44,59 -67,127 -67,205l0 15 -84 0c5,-75 35,-142 91,-200l-134 0 9 -60 185 0zm351 68l-35 5c2,-8 3,-15 3,-21 0,-24 -11,-35 -33,-35 -16,0 -27,6 -34,18 -6,13 -11,38 -14,74 16,-14 33,-21 50,-21 22,0 40,8 55,24 15,15 22,35 22,59 0,28 -8,51 -26,68 -17,17 -40,26 -69,26 -74,0 -111,-44 -111,-130 0,-43 11,-76 32,-101 21,-25 50,-38 85,-38 51,0 76,20 76,60 0,3 0,7 -1,12zm-85 47c-20,0 -30,20 -30,60 0,46 9,69 28,69 18,0 27,-24 27,-73 0,-38 -8,-56 -25,-56zm233 -118c72,0 108,44 108,133 0,90 -36,134 -108,134 -73,0 -109,-44 -109,-134 0,-89 36,-133 109,-133zm0 20c-20,0 -30,38 -30,113 0,76 10,114 30,114 19,0 29,-38 29,-114 0,-75 -10,-113 -29,-113zm263 178l35 -7c-1,7 -2,14 -2,20 0,24 11,36 34,36 15,0 26,-6 32,-19 7,-12 11,-36 14,-73 -16,14 -32,22 -48,22 -23,0 -42,-8 -56,-24 -15,-16 -22,-37 -22,-61 0,-28 8,-51 26,-68 18,-16 41,-25 69,-25 74,0 110,44 110,132 0,43 -10,76 -32,100 -21,24 -50,36 -86,36 -49,0 -74,-18 -74,-55 0,-3 0,-8 0,-14zm88 -178c-18,0 -27,24 -27,72 0,39 8,58 24,58 20,0 31,-21 31,-63 0,-45 -10,-67 -28,-67zm241 -20c72,0 108,44 108,133 0,90 -36,134 -108,134 -73,0 -109,-44 -109,-134 0,-89 36,-133 109,-133zm0 20c-20,0 -30,38 -30,113 0,76 10,114 30,114 19,0 29,-38 29,-114 0,-75 -10,-113 -29,-113z"/>
 </g>
</svg>
