<?xml version="1.0" encoding="UTF-8"?>
<!DOCTYPE svg PUBLIC "-//W3C//DTD SVG 1.1//EN" "http://www.w3.org/Graphics/SVG/1.1/DTD/svg11.dtd">
<!-- Creator: CorelDRAW X7 -->
<svg xmlns="http://www.w3.org/2000/svg" xml:space="preserve" width="22.7983mm" height="20.0426mm" version="1.1" style="shape-rendering:geometricPrecision; text-rendering:geometricPrecision; image-rendering:optimizeQuality; fill-rule:evenodd; clip-rule:evenodd"
viewBox="0 0 430 378"
 xmlns:xlink="http://www.w3.org/1999/xlink">
 <defs>
  <style type="text/css">
   <![CDATA[
    .fil0 {fill:#FEFEFE;fill-rule:nonzero}
   ]]>
  </style>
 </defs>
 <g id="Слой_x0020_1">
  <metadata id="CorelCorpID_0Corel-Layer"/>
  <path class="fil0" d="M45 12l-10 46c-1,1 -1,2 -1,2 0,2 1,3 3,3l15 0 1 -2c-2,0 -3,-1 -3,-2 0,-1 1,-2 1,-3l11 -50c1,-1 1,-3 1,-3 0,-2 -1,-3 -3,-3l-49 0 -1 1c2,1 3,1 3,3 0,0 -1,1 -1,2l-12 52c0,1 0,2 0,2 0,2 1,3 3,3l15 0 0 -2c-1,0 -2,-1 -2,-2 0,-1 0,-2 1,-3l10 -44 18 0zm50 40l-6 0c-4,0 -6,0 -6,-4 0,0 0,-1 0,-2 1,-4 3,-6 8,-6l6 0 -2 12zm11 -38l-24 0c-1,5 -1,6 -1,7 0,2 1,3 3,3l14 0c1,0 2,0 2,1 0,1 0,2 0,4 0,1 -2,1 -3,1l-12 0c-9,0 -14,4 -17,16 0,2 -1,4 -1,6 0,7 4,12 13,12 7,0 9,-1 10,-4l3 -4 1 0 0 1c-1,2 -1,3 -1,3 0,2 1,3 3,3l14 0 0 -2c-1,0 -2,0 -2,-1 0,-1 0,-1 0,-2l7 -30c1,-2 1,-4 1,-5 0,-6 -2,-9 -10,-9zm40 49l12 0 1 -2c-2,0 -3,-1 -3,-2l-2 -42c0,-2 -1,-3 -4,-3l-14 0 0 1c1,0 2,1 2,2 0,0 0,1 -1,1l-22 40c0,1 0,2 0,2 0,2 0,3 2,3l14 0 0 -2c-2,0 -2,-1 -2,-2 0,0 0,-1 0,-1l12 -23 1 24c0,2 1,4 4,4zm68 -44c0,-1 0,-2 0,-3 0,-1 0,-2 -2,-2l-14 0 0 1c1,0 2,1 2,2 0,0 -1,1 -1,1l-6 29c-1,5 -4,5 -7,5l-3 0c-2,0 -3,-1 -3,-3 0,-1 0,-2 0,-3l6 -27c1,-1 1,-2 1,-3 0,-1 -1,-2 -3,-2l-14 0 0 1c1,0 2,1 2,2 0,0 0,1 0,1l-7 28c-1,4 -1,7 -1,9 0,5 3,9 12,9 8,0 10,-1 11,-3l3 -4 1 0c-1,1 -1,2 -1,3 0,1 1,3 3,3l14 0 0 -2c-1,0 -2,0 -2,-1 0,-1 0,-1 0,-2l9 -39zm33 5c3,0 4,1 4,3 0,2 -1,3 -2,4 -1,1 -2,1 -4,1l-6 0 2 -8 6 0zm-10 18l6 0c5,0 5,2 5,4 0,1 -1,4 -2,5 -2,1 -4,1 -6,1l-5 0 2 -10zm15 -28l-26 0 0 1c1,0 2,1 2,2 0,0 0,1 0,1l-9 39c-1,1 -1,2 -1,3 0,1 0,3 3,3l24 0c11,0 16,-5 17,-14 1,-1 1,-2 1,-3 0,-5 -3,-8 -7,-10 6,-1 8,-6 8,-12 0,-6 -4,-10 -12,-10l0 0zm52 18l-13 0 3 -13c0,-1 0,-2 0,-3 0,-1 0,-2 -2,-2l-14 0 -1 1c2,0 2,1 2,2 0,0 0,1 0,1l-9 39c0,2 0,3 0,3 0,2 0,3 2,3l14 0 1 -2c-2,0 -2,0 -2,-1 0,-1 0,-1 0,-2l4 -16 12 0 -3 15c0,2 -1,3 -1,3 0,2 1,3 3,3l14 0 0 -2c-1,0 -2,0 -2,-1 0,-1 0,-1 1,-2l9 -39c0,-1 0,-2 0,-3 0,-1 0,-2 -3,-2l-14 0 0 1c2,0 2,1 2,2 0,0 0,1 0,1l-3 14zm46 -13c0,-1 0,-2 0,-3 0,-1 0,-2 -2,-2l-14 0 0 1c1,0 2,1 2,2 0,0 -1,1 -1,1l-9 39c0,2 0,3 0,3 0,2 0,3 3,3l13 0 1 -2c-2,0 -2,0 -2,-1 0,-1 0,-1 0,-2l9 -39zm3 -9c1,-6 2,-7 2,-8 0,-2 -1,-2 -3,-2l-13 0c-2,7 -2,8 -2,8 0,2 0,2 3,2l13 0zm-332 158c18,0 22,-4 26,-18l1 -5c1,-4 1,-8 1,-10 0,-9 -2,-15 -15,-15 -7,0 -10,3 -12,7l-1 0 1 -4c2,-5 5,-8 10,-8l13 0c3,0 6,-1 6,-3l2 -7 -25 0c-13,0 -19,8 -24,30l-1 7c-1,4 -2,8 -2,11 0,9 5,15 20,15zm7 -38c5,0 7,2 7,6 0,2 -1,4 -2,7l-1 4c-2,8 -4,11 -9,11 -5,0 -7,-1 -7,-5 0,-2 0,-4 1,-6l1 -4c2,-11 4,-13 10,-13zm50 -6c1,-1 1,-2 1,-3 0,-1 -1,-3 -3,-3l-14 0 0 2c1,0 2,1 2,2 0,0 0,1 0,1l-13 53c0,1 0,2 0,3 0,1 1,2 3,2l14 0 0 -2c-2,0 -2,0 -2,-1 0,-1 0,-1 0,-2l2 -8 12 0c13,0 19,-5 23,-24 1,-4 2,-9 2,-12 0,-8 -4,-14 -14,-14 -7,0 -8,1 -10,3l-2 3 -1 0 0 0zm-7 33l5 -22c1,-5 2,-7 8,-7 4,0 5,3 5,6 0,2 0,5 -1,8 -3,13 -5,15 -13,15l-4 0zm89 -33c0,-1 0,-2 0,-3 0,-1 0,-3 -3,-3l-14 0 0 2c2,0 2,1 2,2 0,0 0,1 0,1l-7 29c-1,4 -4,5 -7,5l-2 0c-2,0 -4,-1 -4,-3 0,-1 0,-2 1,-3l6 -27c0,-1 0,-2 0,-3 0,-1 0,-3 -2,-3l-14 0 -1 2c2,0 2,1 2,2 0,0 0,1 0,1l-6 28c-1,4 -2,6 -2,9 0,5 3,8 12,8 8,0 10,0 12,-3l3 -3 0 0c0,1 0,2 0,3 0,1 0,3 2,3l14 0 1 -2c-2,0 -2,-1 -2,-2 0,0 0,0 0,-1l9 -39zm3 38c0,1 0,2 0,3 0,2 1,3 3,3l14 0 0 -2c-2,0 -2,-1 -2,-2 0,0 0,0 0,-1l5 -19 5 0c4,0 5,0 5,2 0,1 0,2 0,3l-3 13c0,1 -1,2 -1,3 0,2 1,3 3,3l14 0 0 -2c-1,0 -2,-1 -2,-2 0,0 0,0 0,-1l5 -18c0,0 0,-1 0,-3 0,-4 -3,-7 -10,-7l-3 0 15 -14c0,0 0,-1 0,-1 0,-1 0,-2 -1,-2l-14 0 0 2c1,0 1,0 1,1 0,0 0,1 -1,1l-11 12 5 -24c1,-1 1,-2 1,-2 0,-2 -1,-3 -3,-3l-14 0 0 1c1,0 2,1 2,2 0,0 0,1 0,1l-13 53zm73 -5c-3,0 -5,-1 -5,-4 0,-1 0,-1 0,-2l1 -5 23 0c2,0 4,-1 5,-3 2,-3 3,-9 3,-12 0,-10 -7,-13 -16,-13l-3 0c-16,0 -22,5 -27,25 0,5 -1,8 -1,11 0,11 5,14 13,14l15 0c7,0 11,-1 12,-6l2 -8 -2 0c-1,3 -3,3 -10,3l-10 0zm-1 -21c1,-5 3,-9 9,-9 4,0 6,2 6,5 0,0 0,1 -1,2l0 2 -14 0zm40 -18l-1 2c2,0 2,1 2,2 0,0 0,1 0,1l-9 39c0,1 0,2 0,3 0,2 0,3 2,3l14 0 1 -2c-2,0 -2,-1 -2,-2 0,0 0,0 0,-1l7 -29c1,-3 3,-5 6,-5 4,0 5,1 5,4 0,0 0,1 0,1l-6 28c-1,1 -1,2 -1,3 0,2 1,3 3,3l14 0 0 -2c-1,0 -2,-1 -2,-2 0,0 0,0 0,-1l7 -29c1,-3 3,-5 7,-5 3,0 4,1 4,3 0,1 0,2 0,2l-6 28c0,1 -1,2 -1,3 0,2 1,3 3,3l14 0 0 -2c-1,0 -2,-1 -2,-2 0,0 0,0 0,-1l7 -29c1,-1 1,-6 1,-8 0,-5 -3,-8 -9,-8 -10,0 -12,0 -14,3l-3 4 -1 0c0,-3 -2,-7 -9,-7 -8,0 -10,0 -12,3l-2 4 -1 0c0,-1 0,-3 0,-4 0,-1 0,-3 -2,-3l-14 0zm122 6c0,-1 0,-2 0,-3 0,-1 0,-3 -3,-3l-14 0 0 2c2,0 2,1 2,2 0,0 0,1 0,1l-7 29c-1,4 -4,5 -7,5l-2 0c-2,0 -4,-1 -4,-3 0,-1 1,-2 1,-3l6 -27c0,-1 0,-2 0,-3 0,-1 0,-3 -2,-3l-14 0 -1 2c2,0 2,1 2,2 0,0 0,1 0,1l-6 28c-1,4 -1,6 -1,9 0,5 2,8 11,8 9,0 10,0 12,-3l3 -3 0 0c0,1 0,2 0,3 0,1 0,3 3,3l13 0 1 -2c-2,0 -2,-1 -2,-2 0,0 0,0 0,-1l9 -39zm-376 126l14 0c13,0 18,-5 21,-18 0,-3 1,-7 1,-9 0,-9 -5,-13 -15,-13l-30 0 -1 1c2,0 2,1 2,2 0,1 0,2 0,3l-12 52c0,1 0,1 0,2 0,1 1,2 3,2l15 0 0 -1c-1,0 -2,-1 -2,-3 0,0 0,-1 0,-2l4 -16zm7 -30l6 0c5,0 6,2 6,5 0,1 0,2 0,4 -2,8 -3,11 -9,11l-7 0 4 -20zm56 9c1,-2 1,-2 1,-3 0,-1 -1,-3 -3,-3l-14 0 0 2c1,0 2,0 2,1 0,1 0,1 0,2l-9 39c-1,1 -1,2 -1,3 0,1 1,2 3,2l14 0 0 -1c-1,0 -2,-1 -2,-2 0,0 0,-1 0,-1l9 -39zm3 -9c2,-6 2,-8 2,-8 0,-2 -1,-2 -3,-2l-13 0c-2,6 -2,7 -2,8 0,1 1,2 3,2l13 0zm9 3l0 2c1,0 2,0 2,1 0,1 -1,1 -1,2l-9 39c0,1 0,2 0,3 0,1 1,2 3,2l14 0 0 -1c-2,0 -2,-1 -2,-2 0,0 0,-1 0,-1l7 -30c1,-4 4,-4 7,-4l2 0c2,0 4,0 4,3 0,1 0,2 0,3l-7 27c0,1 0,2 0,3 0,1 0,2 3,2l14 0 0 -1c-2,0 -2,-1 -2,-2 0,0 0,-1 0,-1l6 -28c1,-4 2,-7 2,-9 0,-5 -3,-9 -12,-9 -8,0 -10,1 -12,3l-2 4 -1 0c0,-1 0,-2 0,-3 0,-1 0,-3 -2,-3l-14 0zm46 0l0 2c2,0 3,1 3,2l10 37 -11 17c0,0 -1,1 -1,2 0,2 1,3 3,3l14 0 0 -2c-1,0 -2,0 -2,-1 0,-1 1,-1 1,-2l33 -52c1,-1 1,-2 1,-3 0,-2 -1,-3 -4,-3l-13 0 0 2c1,0 2,1 2,2 0,0 0,1 0,2l-12 20 -6 -22c0,-3 -1,-4 -4,-4l-14 0zm63 10c-12,4 -13,17 -13,26 0,8 5,13 10,13l19 0c6,0 8,-3 8,-4 2,3 3,4 5,4l7 0c2,0 6,-2 6,-5l2 -8 -9 0 -5 -6 3 -7 1 0c5,0 6,-2 6,-4l1 -6 -13 0c-1,0 -2,0 -6,8l-9 -12c-1,-1 -3,-5 -3,-7 0,-4 2,-6 7,-6 4,0 5,3 5,5 0,2 -1,4 -2,4l1 2 8 0c4,-2 7,-7 7,-10 0,-6 -6,-11 -17,-11l-2 0c-10,0 -17,2 -19,9 -1,0 -1,5 -1,6 0,3 1,6 3,9l0 0zm15 27c-1,2 -6,2 -8,2 -5,0 -7,-3 -7,-9 0,-4 1,-6 2,-7 1,-2 2,-2 4,-3l10 15 -1 2zm86 1l-4 0c-2,0 -2,0 -3,-2l-7 -26 19 -17c1,-1 2,-2 2,-4 0,-1 -1,-2 -4,-2l-15 0 0 1c1,0 2,1 2,2 0,0 -1,1 -1,2l-18 15 4 -16c0,-1 0,-1 0,-2 0,-1 -1,-2 -3,-2l-15 0 0 1c1,0 2,1 2,3 0,0 0,1 0,2l-12 52c-1,1 -1,1 -1,2 0,1 1,2 3,2l15 0 1 -1c-2,0 -2,-1 -2,-3 0,0 0,-1 0,-2l4 -19 7 -6 6 26c1,4 3,5 5,5l8 0c4,0 4,-1 5,-2l2 -9zm27 1c-2,0 -5,-1 -5,-4 0,-1 0,-2 1,-3l1 -5 22 0c3,0 5,0 6,-2 1,-3 3,-10 3,-12 0,-10 -7,-14 -17,-14l-3 0c-16,0 -22,6 -26,26 -1,4 -2,8 -2,11 0,11 5,14 14,14l14 0c7,0 11,-1 12,-7l2 -7 -1 0c-2,2 -3,3 -10,3l-11 0zm-1 -21c1,-6 3,-9 9,-9 5,0 6,1 6,4 0,1 0,2 0,3l-1 2 -14 0zm32 -18l0 2c2,0 3,1 3,2l10 37 -11 17c0,0 -1,1 -1,2 0,2 1,3 3,3l14 0 0 -2c-1,0 -2,0 -2,-1 0,-1 1,-1 1,-2l33 -52c1,-1 1,-2 1,-3 0,-2 -1,-3 -4,-3l-13 0 0 2c1,0 2,1 2,2 0,0 0,1 0,2l-12 20 -6 -22c0,-3 -1,-4 -4,-4l-14 0zm53 38c-2,8 -2,9 -2,9 0,2 1,2 3,2l5 0 0 2c-1,1 -1,1 -3,1l-6 0c0,3 0,3 0,4 0,1 1,1 2,1l6 0c4,0 5,-2 5,-5l3 -10c0,0 0,-1 0,-1 0,-2 -1,-3 -3,-3l-10 0zm-392 90l7 22c1,3 2,4 5,4l7 0c4,0 4,0 5,-3l2 -8 -2 0c-2,0 -3,0 -4,-1l-5 -15c7,-1 13,-5 15,-16 1,-2 1,-5 1,-5 0,-10 -6,-15 -15,-15l-30 0 0 2c1,0 2,1 2,2 0,1 0,2 0,2l-12 52c-1,1 -1,2 -1,3 0,1 1,2 3,2l15 0 1 -1c-2,-1 -2,-1 -2,-3 0,0 0,-1 0,-2l4 -20 4 0zm2 -26l7 0c4,0 6,2 6,5 0,1 0,1 0,2 -2,6 -4,9 -9,9l-7 0 3 -16zm84 8c0,-1 0,-2 0,-2 0,-2 0,-3 -2,-3l-14 0 -1 1c2,0 2,1 2,2 0,1 0,1 0,1l-7 30c-1,4 -4,5 -7,5l-2 0c-2,0 -3,-1 -3,-4 0,0 0,-1 0,-3l6 -27c1,-1 1,-2 1,-2 0,-2 -1,-3 -3,-3l-14 0 0 1c1,0 2,1 2,2 0,1 0,1 0,1l-7 29c-1,4 -1,6 -1,8 0,5 3,9 12,9 8,0 10,-1 11,-3l3 -4 1 0c-1,2 -1,3 -1,3 0,2 0,3 3,3l14 0 0 -1c-1,0 -2,-1 -2,-2 0,0 0,-1 0,-1l9 -40zm27 5l7 0c3,0 4,-1 5,-3l1 -7 -11 0 1 -3c0,-1 1,-2 4,-2l6 0c2,0 3,-2 4,-4l1 -5 -16 0c-11,0 -13,6 -14,11 -1,4 -1,4 -5,4l-3 9 5 0 -8 34c0,1 -1,2 -1,3 0,1 1,2 3,2l14 0 0 -1c-1,0 -2,-1 -2,-2 0,0 1,-1 1,-1l8 -35z"/>
 </g>
</svg>
