<?xml version="1.0" encoding="UTF-8"?>
<!DOCTYPE svg PUBLIC "-//W3C//DTD SVG 1.1//EN" "http://www.w3.org/Graphics/SVG/1.1/DTD/svg11.dtd">
<!-- Creator: CorelDRAW X7 -->
<svg xmlns="http://www.w3.org/2000/svg" xml:space="preserve" width="73.7677mm" height="40.9563mm" version="1.1" style="shape-rendering:geometricPrecision; text-rendering:geometricPrecision; image-rendering:optimizeQuality; fill-rule:evenodd; clip-rule:evenodd"
viewBox="0 0 4535 2518"
 xmlns:xlink="http://www.w3.org/1999/xlink">
 <defs>
  <style type="text/css">
   <![CDATA[
    .fil0 {fill:#FEFEFE;fill-rule:nonzero}
   ]]>
  </style>
 </defs>
 <g id="Слой_x0020_1">
  <metadata id="CorelCorpID_0Corel-Layer"/>
  <g id="_772534592">
   <path class="fil0" d="M130 10l-1 5c5,0 7,3 7,8 0,1 0,4 -1,6l-39 171c0,2 0,2 0,5 0,7 3,9 12,9l86 0c21,0 34,-3 47,-14 11,-10 22,-42 22,-60 0,-17 -3,-27 -22,-39 21,-3 31,-31 31,-48 0,-22 -13,-43 -49,-43l-93 0zm23 166l13 -58 27 0c15,0 20,9 20,19 0,7 -5,23 -9,29 -5,7 -11,10 -27,10l-24 0zm21 -91l10 -41 23 0c16,0 18,7 18,14 0,5 -2,17 -7,21 -4,5 -9,6 -19,6l-25 0zm193 91c-20,0 -28,-4 -28,-20 0,-8 2,-23 7,-42 13,-59 25,-69 53,-69l19 0c15,0 21,-4 24,-17l5 -18 -64 0c-41,0 -64,11 -88,99 -5,19 -8,36 -8,50 0,41 17,55 54,55l50 0c14,0 24,-4 28,-20l6 -28 -5 0c-6,7 -10,10 -21,10l-32 0zm121 -166l-1 5c5,0 7,3 7,8 0,1 -1,4 -1,6l-39 171c-1,2 -1,2 -1,5 0,7 4,9 13,9l93 0c18,0 22,-3 25,-16l7 -32 -5 0c-6,7 -10,10 -20,10l-55 0 10 -46c2,-9 7,-12 16,-12l38 0c11,0 19,-1 21,-13l5 -21 -69 0 10 -42 53 0c15,0 21,-2 24,-12l4 -20 -135 0zm310 0l-1 5c4,0 7,3 7,8 0,2 0,4 -2,8l-75 139c-2,5 -5,9 -11,9l-8 0c-5,20 -5,24 -5,26 0,5 2,9 10,9l159 0c11,0 13,-4 14,-12l6 -23 -8 0c-5,0 -8,-3 -8,-10l-7 -145c0,-7 -6,-14 -15,-14l-56 0zm29 169l-59 0 55 -111 4 111zm148 -169l-2 5c5,0 8,5 8,9 0,1 0,3 -1,5l-91 165c-3,4 -4,8 -4,10 0,7 5,10 13,10l38 0 1 -4c-4,0 -7,-2 -7,-7 0,-2 1,-4 3,-9l62 -114 9 122c1,8 5,12 12,12l48 0 1 -4c-5,0 -9,-5 -10,-12l-14 -174c-1,-8 -5,-14 -15,-14l-51 0zm201 130l-14 59c-1,3 -1,5 -1,7 0,4 3,8 9,8l50 0 1 -4c-5,-1 -7,-4 -7,-9 0,-2 1,-4 1,-7l39 -169c0,-2 1,-3 1,-6 0,-7 -4,-9 -13,-9l-77 0c-42,0 -62,19 -72,59 -1,7 -2,14 -2,18 0,25 18,43 32,47l-32 37c-6,6 -8,8 -14,8l-7 0c-7,27 -8,29 -8,30 0,4 3,5 9,5l27 0c11,0 15,-4 23,-13l53 -61 2 0zm20 -92l-12 56 -17 0c-17,0 -25,-6 -25,-19 0,-2 0,-6 1,-9 5,-22 15,-28 35,-28l18 0zm209 -38l-49 0 -1 5c6,0 10,5 11,11l38 135 -2 6c-4,9 -9,12 -19,12l-14 0c-4,16 -5,20 -5,25 0,7 4,10 13,10l25 0c20,0 28,-9 36,-24l87 -162c2,-4 3,-7 3,-11 0,-4 -3,-7 -10,-7l-49 0 0 5c4,0 6,2 6,6 0,2 0,5 -1,7l-34 70 -20 -74c-2,-9 -5,-14 -15,-14zm229 37l26 0c17,0 21,-4 24,-16l8 -31 -6 0c-5,8 -9,10 -20,10l-105 0c-18,0 -23,4 -26,16l-7 31 5 0c6,-8 10,-10 21,-10l28 0 -34 152c-1,3 -1,5 -1,7 0,4 2,8 8,8l51 0 0 -4c-5,-1 -6,-4 -6,-9 0,-2 0,-4 1,-7l33 -147zm80 -37l-1 5c5,0 7,3 7,8 0,1 0,4 -1,6l-39 171c0,2 -1,2 -1,5 0,7 4,9 13,9l93 0c18,0 22,-3 25,-16l8 -32 -6 0c-5,7 -10,10 -20,10l-55 0 11 -46c2,-9 6,-12 16,-12l38 0c10,0 18,-1 21,-13l4 -21 -68 0 9 -42 54 0c15,0 20,-2 23,-12l5 -20 -136 0zm289 38l-35 151c0,3 -1,5 -1,7 0,4 3,8 9,8l50 0 1 -4c-5,-1 -7,-4 -7,-9 0,-2 1,-4 1,-7l38 -166c1,-3 2,-8 2,-8 0,-7 -4,-10 -11,-10l-159 0 -1 5c5,0 7,3 7,8 0,1 -1,4 -1,6l-39 170c-1,3 -1,5 -1,7 0,4 2,8 9,8l50 0 1 -4c-5,-1 -7,-4 -7,-8 0,-2 0,-5 1,-8l34 -146 59 0zm137 -38l-1 5c4,0 7,5 7,9 0,1 0,3 -1,5l-91 165c-2,4 -3,8 -3,10 0,7 5,10 12,10l38 0 1 -4c-3,0 -7,-2 -7,-7 0,-2 1,-4 4,-9l62 -114 9 122c0,8 4,12 11,12l48 0 2 -4c-6,0 -10,-5 -10,-12l-14 -174c-1,-8 -5,-14 -15,-14l-52 0zm140 0l-1 5c5,0 7,3 7,8 0,1 0,4 -1,6l-39 171c0,2 0,2 0,5 0,7 3,9 12,9l93 0c18,0 22,-3 25,-16l8 -32 -6 0c-5,7 -10,10 -20,10l-54 0 10 -46c2,-9 6,-12 16,-12l38 0c11,0 18,-1 21,-13l5 -21 -69 0 9 -42 54 0c15,0 20,-2 23,-12l5 -20 -136 0zm258 189c-1,3 -2,5 -2,7 0,4 3,8 9,8l50 0 1 -4c-5,-1 -6,-4 -6,-9 0,-2 0,-4 0,-7l39 -169c1,-3 1,-5 1,-7 0,-4 -2,-8 -8,-8l-51 0 0 5c5,0 6,3 6,8 0,2 0,6 0,7l-13 54 -60 0 14 -61c0,-4 1,-6 1,-7 0,-5 -3,-9 -9,-9l-50 0 -1 5c5,1 7,4 7,9 0,2 -1,6 -1,7l-39 168c-1,4 -1,6 -1,8 0,4 2,8 9,8l50 0 1 -5c-5,0 -7,-3 -7,-8 0,-2 0,-5 1,-7l17 -74 60 0 -18 81zm215 0c-1,3 -1,5 -1,7 0,4 2,8 9,8l50 0 1 -4c-5,-1 -7,-4 -7,-9 0,-2 0,-4 1,-7l39 -169c1,-3 1,-5 1,-7 0,-4 -2,-8 -9,-8l-50 0 -1 5c5,0 7,3 7,8 0,2 0,6 -1,7l-12 54 -61 0 14 -61c1,-4 1,-6 1,-7 0,-5 -2,-9 -9,-9l-50 0 -1 5c6,1 7,4 7,9 0,2 0,6 0,7l-40 168c0,4 -1,6 -1,8 0,4 3,8 9,8l50 0 1 -5c-5,0 -7,-3 -7,-8 0,-2 1,-5 1,-7l17 -74 60 0 -18 81zm196 -59l-13 59c-1,3 -1,5 -1,7 0,4 2,8 9,8l50 0 1 -4c-6,-1 -7,-4 -7,-9 0,-2 0,-4 1,-7l38 -169c1,-2 1,-3 1,-6 0,-7 -4,-9 -12,-9l-77 0c-43,0 -63,19 -72,59 -2,7 -2,14 -2,18 0,25 17,43 31,47l-32 37c-6,6 -7,8 -14,8l-7 0c-7,27 -7,29 -7,30 0,4 3,5 9,5l26 0c12,0 16,-4 24,-13l52 -61 2 0zm21 -92l-13 56 -16 0c-18,0 -25,-6 -25,-19 0,-2 0,-6 1,-9 5,-22 14,-28 34,-28l19 0zm283 136l37 0c42,0 62,-19 74,-71 2,-8 3,-19 3,-23 0,-32 -21,-50 -58,-50l-23 0 4 -15c1,-3 1,-5 1,-7 0,-4 -2,-8 -9,-8l-50 0 -1 5c5,0 7,3 7,8 0,2 0,6 -1,7l-2 10 -31 0c-42,0 -68,19 -80,71 -2,8 -3,19 -3,22 0,32 20,51 58,51l23 0 -4 15c-1,3 -1,5 -1,7 0,4 2,8 9,8l50 0 1 -4c-5,-1 -7,-4 -7,-9 0,-2 0,-4 1,-7l2 -10zm8 -35l17 -74 16 0c14,0 21,7 21,20 0,4 -1,10 -2,17 -6,24 -16,37 -34,37l-18 0zm-35 -74l-17 74 -15 0c-14,0 -21,-7 -21,-19 0,-2 1,-12 2,-18 6,-24 16,-37 34,-37l17 0zm311 139l1 -4c-5,0 -9,-4 -9,-9l-4 -178c0,-8 -7,-13 -16,-13l-58 0 -1 5c5,0 8,2 8,6 0,2 -1,4 -2,6l-101 173c-2,2 -2,5 -2,7 0,4 3,7 10,7l42 0 2 -4c-5,0 -6,-3 -6,-6 0,-3 1,-4 2,-6l19 -34 56 0 1 42c0,6 4,8 10,8l48 0zm-59 -150l0 66 -37 0 37 -66zm156 112c-20,0 -28,-4 -28,-20 0,-8 3,-23 7,-42 13,-59 25,-69 53,-69l19 0c15,0 21,-4 24,-17l5 -18 -64 0c-41,0 -64,11 -88,99 -5,19 -8,36 -8,50 0,41 17,55 54,55l50 0c14,0 24,-4 28,-20l6 -28 -5 0c-6,7 -10,10 -21,10l-32 0zm245 38l0 -4c-5,0 -9,-4 -9,-9l-4 -178c0,-8 -7,-13 -15,-13l-59 0 -1 5c5,0 8,2 8,6 0,2 0,4 -2,6l-101 173c-2,2 -2,5 -2,7 0,4 3,7 10,7l43 0 1 -4c-4,0 -6,-3 -6,-6 0,-3 1,-4 2,-6l19 -34 57 0 0 42c0,6 4,8 11,8l48 0zm-59 -150l0 66 -38 0 38 -66zm159 -54l-1 5c4,0 7,3 7,8 0,2 -1,4 -2,8l-75 139c-2,5 -5,9 -11,9l-8 0c-5,20 -6,24 -6,26 0,5 3,9 11,9l159 0c11,0 12,-4 14,-12l5 -23 -7 0c-6,0 -8,-3 -8,-10l-7 -145c0,-7 -7,-14 -15,-14l-56 0zm29 169l-59 0 55 -111 4 111zm82 20c-1,3 -1,5 -1,7 0,4 2,8 8,8l50 0 1 -4c-5,-1 -6,-4 -6,-9 0,-2 0,-4 0,-7l39 -169c1,-3 1,-5 1,-7 0,-4 -2,-8 -9,-8l-50 0 -1 5c6,0 7,3 7,8 0,2 0,6 0,7l-39 169zm135 -189l-1 5c5,0 7,3 7,8 0,1 0,4 -1,6l-39 171c-1,2 -1,2 -1,5 0,7 4,9 13,9l86 0c20,0 34,-3 46,-14 12,-10 23,-42 23,-60 0,-17 -4,-27 -23,-39 21,-3 32,-31 32,-48 0,-22 -14,-43 -49,-43l-93 0zm22 166l14 -58 27 0c15,0 19,9 19,19 0,7 -4,23 -8,29 -6,7 -11,10 -27,10l-25 0zm22 -91l9 -41 23 0c16,0 19,7 19,14 0,5 -3,17 -7,21 -5,5 -10,6 -19,6l-25 0zm117 93c-5,26 -6,28 -6,29 1,5 3,7 9,7l34 0c5,-22 6,-28 6,-30 0,-2 -1,-6 -9,-6l-34 0zm14 -59c-6,25 -6,27 -6,29 0,4 3,7 8,7l34 0c6,-22 7,-28 7,-30 0,-3 -2,-6 -10,-6l-33 0zm-3599 554l-1 5c5,0 7,2 7,5 0,1 0,3 -1,4l-29 129c-1,3 -1,7 -1,10 0,4 2,7 8,7l46 0 1 -5c-5,0 -7,-2 -7,-5 0,-1 0,-3 1,-4l23 -96c3,-14 13,-16 23,-16l7 0c7,0 11,3 11,10 0,3 0,6 -1,10l-20 89c-1,3 -1,7 -1,10 0,4 2,7 8,7l46 0 1 -5c-5,0 -7,-2 -7,-5 0,-1 1,-3 1,-4l21 -92c3,-13 4,-21 4,-29 0,-16 -9,-28 -38,-28 -27,0 -32,2 -38,9l-9 14 -2 0c1,-5 2,-9 2,-11 0,-4 -2,-9 -9,-9l-46 0zm231 17c1,-3 2,-6 2,-8 0,-4 -1,-9 -9,-9l-45 0 -1 5c4,0 6,2 6,5 0,1 0,3 0,4l-30 129c-1,3 -2,7 -2,10 0,4 3,7 9,7l46 0 1 -5c-5,0 -7,-2 -7,-5 0,-1 0,-3 1,-4l29 -129zm10 -27c5,-21 5,-26 5,-28 0,-5 -3,-7 -9,-7l-43 0c-5,23 -6,26 -6,27 0,5 2,8 10,8l43 0zm112 69l-41 0 9 -42c1,-3 2,-6 2,-8 0,-4 -2,-9 -9,-9l-46 0 -1 5c5,0 7,2 7,5 0,1 0,3 -1,4l-29 129c-1,3 -2,7 -2,10 0,4 2,7 9,7l46 0 0 -5c-4,0 -6,-2 -6,-5 0,-1 0,-3 1,-4l12 -53 42 0 -12 50c-1,3 -1,7 -1,10 0,4 2,7 9,7l45 0 1 -5c-5,0 -7,-2 -7,-5 0,-1 1,-3 1,-4l30 -129c0,-3 1,-6 1,-8 0,-4 -1,-9 -9,-9l-45 0 -1 5c5,0 6,2 6,5 0,1 0,3 0,4l-11 45zm162 -62c-49,0 -69,17 -81,70l-6 25c-2,8 -3,15 -3,21 0,37 29,50 65,50l8 0c50,0 68,-14 79,-61l5 -23c2,-8 4,-20 4,-27 0,-29 -10,-55 -60,-55l-11 0zm2 34c15,0 21,7 21,20 0,6 -2,14 -4,23l-5 19c-6,26 -14,36 -34,36 -15,0 -21,-6 -21,-20 0,-4 1,-10 2,-16l5 -22c8,-34 16,-40 36,-40zm106 -31l-1 5c5,0 6,2 6,5 0,1 0,3 0,4l-30 129c-1,3 -1,7 -1,10 0,4 2,7 9,7l45 0 1 -5c-5,0 -7,-2 -7,-5 0,-1 1,-3 1,-4l23 -96c3,-14 13,-16 23,-16l7 0c7,0 12,3 12,10 0,3 -1,6 -1,10l-21 89c-1,3 -1,7 -1,10 0,4 2,7 9,7l45 0 1 -5c-5,0 -6,-2 -6,-5 0,-1 0,-3 0,-4l21 -92c3,-13 4,-21 4,-29 0,-16 -9,-28 -38,-28 -27,0 -32,2 -37,9l-10 14 -2 0c1,-5 2,-9 2,-11 0,-4 -1,-9 -9,-9l-45 0zm237 160l40 0 2 -5c-5,0 -8,-3 -8,-8l-8 -136c0,-8 -4,-11 -13,-11l-44 0 -1 5c3,0 5,2 5,4 0,1 0,4 -2,6l-70 129c-2,3 -3,6 -3,8 0,4 3,8 8,8l44 0 1 -5c-5,0 -7,-2 -7,-6 0,-1 0,-3 1,-6l38 -75 3 79c0,8 5,13 14,13zm147 -34l-19 0c-13,0 -20,-2 -20,-13 0,-2 0,-5 1,-9 3,-12 10,-18 25,-18l22 0 -9 40zm37 -126l-78 0c-4,19 -5,22 -5,23 0,6 3,10 12,10l45 0c3,0 7,2 7,5 0,2 0,4 -2,11 0,3 -5,6 -9,6l-38 0c-31,0 -48,13 -56,49 -2,7 -2,15 -2,21 0,22 11,38 39,38 25,0 31,-4 36,-12l8 -14 4 0 -2 6c-1,3 -1,7 -1,10 0,4 2,7 8,7l46 0 1 -5c-5,0 -7,-2 -7,-5 0,-1 0,-3 1,-4l22 -98c2,-7 3,-13 3,-19 0,-17 -7,-29 -32,-29zm109 126c-10,0 -14,-5 -14,-13 0,-2 0,-7 1,-11l10 -43c3,-15 12,-25 24,-25l26 0c13,0 21,-4 22,-10l7 -24 -71 0c-24,0 -45,12 -60,72 -5,18 -10,44 -10,49 0,29 8,42 37,42l43 0c24,0 35,-3 40,-23l5 -23 -5 0c-4,7 -10,9 -32,9l-23 0zm111 -126l-1 5c5,0 7,2 7,5 0,1 -1,3 -1,4l-29 129c-1,3 -2,7 -2,10 0,4 2,7 9,7l45 0 1 -5c-4,0 -6,-2 -6,-5 0,-1 0,-3 0,-4l23 -95c3,-12 9,-17 22,-17 12,0 16,5 16,12 0,1 -1,4 -1,6l-21 91c-1,3 -2,7 -2,10 0,4 2,7 9,7l45 0 1 -5c-4,0 -6,-2 -6,-5 0,-1 0,-3 0,-4l22 -95c3,-12 10,-17 22,-17 11,0 16,4 16,12 0,0 -1,4 -1,6l-21 91c-1,3 -1,7 -1,10 0,4 2,7 9,7l45 0 1 -5c-5,0 -7,-2 -7,-5 0,-1 1,-3 1,-4l22 -94c1,-6 3,-21 3,-28 0,-14 -10,-27 -31,-27 -33,0 -39,3 -45,11l-9 13 -3 0c-2,-10 -8,-24 -29,-24 -27,0 -34,2 -39,10l-9 14 -3 0c1,-4 2,-10 2,-12 0,-4 -1,-9 -9,-9l-45 0zm239 124c-6,25 -7,27 -7,29 0,4 4,7 9,7l17 0 0 4c-1,5 -3,6 -8,6l-20 0c-1,8 -2,10 -2,11 0,3 5,4 9,4l20 0c11,0 14,-5 16,-15l7 -34c1,-1 1,-3 1,-4 0,-5 -3,-8 -9,-8l-33 0zm171 -124l-2 5c4,0 6,1 6,4 0,2 0,2 0,4l-46 128c-2,5 -2,8 -2,10 0,6 3,9 10,9l40 0 1 -5c-4,0 -8,-4 -8,-7 0,-2 1,-3 2,-6l23 -72 9 77c1,7 5,13 14,13l29 0 37 -90 3 78c0,7 4,12 11,12l43 0 1 -5c-4,0 -9,-3 -9,-8l-8 -136c0,-8 -4,-11 -13,-11l-45 0 -1 5c3,0 5,1 5,4 0,2 0,5 -1,6l-31 72 -8 -76c-1,-8 -5,-11 -13,-11l-47 0zm269 17c1,-3 2,-6 2,-8 0,-4 -2,-9 -9,-9l-46 0 -1 5c5,0 7,2 7,5 0,1 0,3 -1,4l-29 129c-1,3 -2,7 -2,10 0,4 2,7 9,7l46 0 0 -5c-4,0 -6,-2 -6,-5 0,-1 0,-3 1,-4l29 -129zm10 -27c4,-21 5,-26 5,-28 0,-5 -3,-7 -9,-7l-43 0c-5,23 -6,26 -6,27 0,5 2,8 10,8l43 0zm112 69l-41 0 9 -42c1,-3 1,-6 1,-8 0,-4 -1,-9 -8,-9l-46 0 -1 5c5,0 7,2 7,5 0,1 0,3 -1,4l-29 129c-1,3 -2,7 -2,10 0,4 2,7 9,7l45 0 1 -5c-4,0 -6,-2 -6,-5 0,-1 0,-3 0,-4l13 -53 42 0 -12 50c-1,3 -1,7 -1,10 0,4 2,7 8,7l46 0 1 -5c-5,0 -7,-2 -7,-5 0,-1 0,-3 1,-4l29 -129c1,-3 2,-6 2,-8 0,-4 -1,-9 -9,-9l-45 0 -1 5c4,0 6,2 6,5 0,1 0,3 0,4l-11 45zm165 -26c11,0 14,4 14,10 0,6 -2,11 -5,14 -3,3 -9,3 -14,3l-19 0 6 -27 18 0zm-31 59l20 0c15,0 15,7 15,12 0,4 -2,14 -7,18 -5,4 -13,4 -19,4l-17 0 8 -34zm48 -92l-84 0 -1 5c5,0 6,2 6,5 0,1 0,3 0,4l-29 129c-1,3 -2,6 -2,8 0,4 1,9 9,9l80 0c35,0 50,-16 56,-44 1,-4 1,-7 1,-11 0,-16 -8,-26 -21,-31 18,-5 26,-22 26,-39 0,-21 -13,-35 -41,-35l0 0zm151 126l-19 0c-13,0 -20,-2 -20,-13 0,-2 0,-5 1,-9 3,-12 10,-18 25,-18l22 0 -9 40zm37 -126l-78 0c-4,19 -5,22 -5,23 0,6 3,10 12,10l46 0c2,0 6,2 6,5 0,2 0,4 -2,11 0,3 -4,6 -9,6l-38 0c-31,0 -48,13 -56,49 -2,7 -2,15 -2,21 0,22 11,38 39,38 25,0 31,-4 36,-12l8 -14 4 0 -2 6c-1,3 -1,7 -1,10 0,4 2,7 9,7l45 0 1 -5c-5,0 -7,-2 -7,-5 0,-1 1,-3 1,-4l22 -98c2,-7 3,-13 3,-19 0,-17 -7,-29 -32,-29z"/>
   <path class="fil0" d="M3305 673l-1 5c5,0 7,2 7,5 0,1 0,3 -1,4l-29 129c-1,3 -1,7 -1,10 0,4 2,7 8,7l46 0 1 -5c-5,0 -7,-2 -7,-5 0,-1 1,-3 1,-4l22 -95c3,-12 10,-17 22,-17 12,0 16,5 16,12 0,1 -1,4 -1,6l-21 91c-1,3 -1,7 -1,10 0,4 2,7 8,7l46 0 1 -5c-5,0 -7,-2 -7,-5 0,-1 0,-3 1,-4l22 -95c2,-12 9,-17 22,-17 11,0 15,4 15,12 0,0 0,4 -1,6l-20 91c-1,3 -2,7 -2,10 0,4 2,7 9,7l45 0 1 -5c-4,0 -6,-2 -6,-5 0,-1 0,-3 0,-4l22 -94c2,-6 4,-21 4,-28 0,-14 -10,-27 -32,-27 -32,0 -38,3 -44,11l-9 13 -3 0c-2,-10 -9,-24 -29,-24 -28,0 -35,2 -40,10l-8 14 -3 0c0,-4 2,-10 2,-12 0,-4 -2,-9 -9,-9l-46 0zm323 126l-19 0c-13,0 -20,-2 -20,-13 0,-2 0,-5 1,-9 3,-12 10,-18 25,-18l22 0 -9 40zm37 -126l-78 0c-4,19 -5,22 -5,23 0,6 3,10 12,10l46 0c2,0 6,2 6,5 0,2 0,4 -2,11 0,3 -4,6 -9,6l-38 0c-31,0 -48,13 -56,49 -2,7 -2,15 -2,21 0,22 11,38 39,38 25,0 31,-4 36,-12l8 -14 4 0 -2 6c-1,3 -1,7 -1,10 0,4 2,7 8,7l46 0 1 -5c-5,0 -7,-2 -7,-5 0,-1 1,-3 1,-4l22 -98c2,-7 3,-13 3,-19 0,-17 -7,-29 -32,-29zm51 124c-6,25 -6,27 -6,29 0,4 3,7 8,7l18 0 -1 4c-1,5 -3,6 -8,6l-19 0c-2,8 -2,10 -2,11 0,3 4,4 8,4l20 0c11,0 14,-5 16,-15l8 -34c0,-1 0,-3 0,-4 0,-5 -3,-8 -9,-8l-33 0zm-3690 185l-1 5c5,0 6,2 6,6 0,1 0,3 0,4l-30 128c0,4 -1,7 -1,10 0,4 2,7 9,7l45 0 1 -4c-5,0 -6,-2 -6,-6 0,-1 0,-3 0,-4l23 -94c2,-12 9,-18 22,-18 12,0 15,5 15,13 0,0 0,4 0,5l-22 91c0,4 -1,7 -1,10 0,4 2,7 9,7l45 0 1 -4c-5,0 -6,-2 -6,-6 0,-1 0,-3 0,-4l22 -94c3,-12 10,-18 22,-18 11,0 16,5 16,12 0,1 -1,5 -1,6l-21 91c-1,4 -1,7 -1,10 0,4 2,7 9,7l45 0 1 -4c-5,0 -7,-2 -7,-6 0,-1 1,-3 1,-4l22 -94c1,-6 3,-20 3,-27 0,-15 -10,-27 -31,-27 -33,0 -39,2 -45,10l-9 13 -3 0c-2,-10 -8,-23 -29,-23 -27,0 -34,2 -39,10l-9 13 -3 0c1,-4 2,-9 2,-12 0,-4 -1,-9 -9,-9l-45 0zm298 126c-9,0 -17,-2 -17,-13 0,-2 1,-5 2,-8l3 -16 73 0c8,0 16,-2 19,-9 5,-10 9,-31 9,-39 0,-32 -23,-43 -55,-43l-9 0c-52,0 -72,19 -85,83 -3,14 -6,26 -6,35 0,36 16,47 44,47l47 0c24,0 36,-3 40,-22l5 -24 -4 0c-5,7 -10,9 -32,9l-34 0zm-4 -68c3,-18 9,-29 30,-29 14,0 19,5 19,14 0,2 0,6 -1,9l-2 6 -46 0zm185 -40c0,-4 1,-6 1,-9 0,-4 -1,-9 -9,-9l-45 0 -1 5c5,0 6,2 6,6 0,1 0,3 0,4l-40 171c-1,4 -1,8 -1,11 0,4 2,7 9,7l45 0 1 -5c-5,0 -7,-2 -7,-5 0,-1 1,-3 1,-5l7 -29 39 0c42,0 61,-15 74,-77 3,-13 5,-27 5,-39 0,-27 -11,-46 -45,-46 -21,0 -25,3 -30,10l-8 12 -3 0 1 -2zm-26 108l17 -71c4,-16 8,-23 27,-23 13,0 17,8 17,20 0,7 -1,16 -4,25 -10,44 -17,49 -43,49l-14 0zm157 -126l-1 5c3,0 6,2 6,4 0,2 0,3 -1,4l-45 129c-2,4 -3,7 -3,10 0,5 3,8 11,8l39 0 2 -4c-5,0 -8,-5 -8,-7 0,-3 0,-4 1,-7l23 -71 10 77c1,7 5,12 13,12l30 0 36 -89 3 78c1,6 4,11 11,11l43 0 2 -4c-5,0 -9,-4 -10,-8l-7 -137c-1,-7 -5,-11 -13,-11l-46 0 -1 5c3,0 6,2 6,4 0,2 -1,5 -1,6l-31 72 -9 -76c0,-7 -4,-11 -12,-11l-48 0zm280 -2c-49,0 -69,16 -81,70l-5 24c-2,8 -3,15 -3,21 0,37 28,50 64,50l8 0c51,0 68,-14 79,-60l6 -24c2,-8 4,-20 4,-27 0,-29 -10,-54 -61,-54l-11 0zm2 34c16,0 21,6 21,19 0,6 -1,14 -3,23l-5 19c-6,27 -14,36 -35,36 -14,0 -21,-6 -21,-19 0,-5 1,-10 3,-17l5 -22c7,-33 15,-39 35,-39zm147 131c59,0 73,-14 84,-61l4 -15c3,-13 4,-25 4,-32 0,-29 -6,-50 -50,-50 -21,0 -31,10 -37,22l-4 0 3 -12c5,-16 15,-27 32,-27l43 0c9,0 18,-2 20,-9l5 -23 -80 0c-42,0 -62,28 -77,97l-6 24c-3,13 -5,25 -5,35 0,32 16,51 64,51zm25 -124c14,0 20,6 20,18 0,7 -2,15 -4,25l-3 11c-7,26 -13,36 -32,36 -15,0 -23,-4 -23,-16 0,-5 1,-12 3,-20l3 -14c8,-34 16,-40 36,-40zm169 121l40 0 1 -4c-5,0 -8,-4 -8,-9l-8 -136c0,-7 -4,-11 -12,-11l-45 0 -1 5c3,0 5,2 5,5 0,1 0,4 -2,6l-70 128c-2,4 -3,6 -3,8 0,5 3,8 9,8l43 0 1 -4c-5,0 -7,-3 -7,-6 0,-1 0,-4 1,-7l38 -75 3 79c0,8 5,13 15,13zm145 -162c-49,0 -69,16 -81,70l-6 24c-2,8 -2,15 -2,21 0,37 28,50 64,50l8 0c51,0 68,-14 79,-60l6 -24c2,-8 4,-20 4,-27 0,-29 -11,-54 -61,-54l-11 0zm2 34c15,0 21,6 21,19 0,6 -1,14 -4,23l-4 19c-7,27 -15,36 -35,36 -14,0 -21,-6 -21,-19 0,-5 1,-10 3,-17l5 -22c7,-33 15,-39 35,-39zm81 111c-1,4 -2,7 -2,10 0,4 2,7 9,7l46 0 0 -4c-4,0 -6,-2 -6,-6 0,-1 0,-3 1,-4l14 -64 18 0c13,0 17,3 17,10 0,2 0,4 -1,7l-10 44c-1,4 -1,7 -1,10 0,4 2,7 9,7l45 0 1 -4c-5,0 -7,-2 -7,-6 0,-1 1,-3 1,-4l13 -58c1,-3 1,-6 1,-10 0,-13 -10,-25 -33,-25l-8 0 47 -43c1,-1 2,-3 2,-5 0,-2 -1,-5 -6,-5l-44 0 -1 5c3,0 5,2 5,3 0,1 -1,3 -2,4l-38 37 18 -76c0,-3 1,-6 1,-8 0,-4 -1,-9 -9,-9l-45 0 -1 5c5,0 6,2 6,5 0,1 0,3 0,4l-40 173zm177 -19c-6,25 -6,28 -6,29 0,5 3,7 8,7l18 0 -1 5c-1,4 -3,5 -8,5l-19 0c-2,8 -2,10 -2,11 0,3 4,4 8,4l20 0c11,0 14,-5 16,-15l8 -33c0,-2 1,-4 1,-5 0,-5 -3,-8 -10,-8l-33 0zm286 2c-10,0 -15,-4 -15,-12 0,-3 1,-7 2,-11l10 -43c3,-16 12,-26 24,-26l26 0c13,0 21,-3 22,-9l7 -25 -71 0c-24,0 -45,12 -61,73 -4,18 -9,43 -9,48 0,29 8,42 37,42l42 0c24,0 36,-3 40,-22l6 -24 -5 0c-4,7 -10,9 -32,9l-23 0zm165 -108c1,-4 1,-6 1,-9 0,-4 -1,-9 -9,-9l-45 0 -1 5c5,0 7,2 7,6 0,1 -1,3 -1,4l-30 128c-1,4 -1,7 -1,10 0,4 2,7 9,7l45 0 1 -4c-5,0 -6,-2 -6,-6 0,-1 0,-3 0,-4l30 -128zm9 -28c5,-20 6,-25 6,-27 0,-6 -4,-7 -10,-7l-42 0c-6,22 -6,25 -6,26 0,6 2,8 9,8l43 0zm29 10l-1 5c5,0 6,2 6,6 0,1 0,3 0,4l-30 128c-1,4 -1,7 -1,10 0,4 2,7 9,7l45 0 1 -4c-5,0 -6,-2 -6,-6 0,-1 0,-3 0,-4l23 -94c2,-12 9,-18 22,-18 11,0 15,5 15,13 0,0 0,4 -1,5l-21 91c-1,4 -1,7 -1,10 0,4 2,7 9,7l45 0 1 -4c-5,0 -7,-2 -7,-6 0,-1 1,-3 1,-4l22 -94c3,-12 10,-18 22,-18 11,0 16,5 16,12 0,1 -1,5 -1,6l-21 91c-1,4 -1,7 -1,10 0,4 2,7 8,7l46 0 1 -4c-5,0 -7,-2 -7,-6 0,-1 0,-3 1,-4l21 -94c2,-6 4,-20 4,-27 0,-15 -10,-27 -31,-27 -33,0 -39,2 -45,10l-9 13 -3 0c-2,-10 -8,-23 -29,-23 -27,0 -35,2 -40,10l-8 13 -3 0c1,-4 2,-9 2,-12 0,-4 -1,-9 -9,-9l-45 0zm231 143c-1,4 -2,7 -2,10 0,4 3,7 9,7l46 0 1 -4c-5,0 -7,-2 -7,-6 0,-1 0,-3 1,-4l14 -64 19 0c12,0 16,3 16,10 0,2 0,4 0,7l-11 44c-1,4 -1,7 -1,10 0,4 2,7 9,7l45 0 1 -4c-5,0 -7,-2 -7,-6 0,-1 1,-3 1,-4l14 -58c0,-3 0,-6 0,-10 0,-13 -10,-25 -33,-25l-8 0 47 -43c2,-1 2,-3 2,-5 0,-2 -1,-5 -5,-5l-45 0 -1 5c3,0 5,2 5,3 0,1 -1,3 -2,4l-38 37 18 -76c1,-3 1,-6 1,-8 0,-4 -1,-9 -9,-9l-45 0 -1 5c5,0 7,2 7,5 0,1 -1,3 -1,4l-40 173zm261 -17l-19 0c-13,0 -20,-2 -20,-12 0,-2 1,-6 1,-9 3,-13 11,-19 25,-19l22 0 -9 40zm37 -126l-77 0c-5,19 -6,22 -6,23 0,7 3,10 12,10l46 0c3,0 6,2 6,5 0,2 0,5 -2,11 0,3 -4,6 -8,6l-39 0c-31,0 -47,13 -56,49 -2,8 -2,15 -2,21 0,22 11,38 40,38 25,0 30,-3 35,-12l8 -14 4 0 -2 6c-1,4 -1,7 -1,10 0,4 2,7 9,7l45 0 1 -4c-5,0 -7,-2 -7,-6 0,-1 1,-3 1,-4l23 -97c1,-7 2,-14 2,-20 0,-17 -7,-29 -32,-29zm51 124c-5,25 -6,28 -6,29 0,5 3,7 9,7l17 0 -1 5c-1,4 -3,5 -8,5l-19 0c-2,8 -2,10 -2,11 0,3 4,4 8,4l20 0c12,0 15,-5 17,-15l7 -33c0,-2 1,-4 1,-5 0,-5 -3,-8 -10,-8l-33 0zm290 -71c3,-11 8,-17 21,-17l25 0c13,0 21,-3 23,-13l5 -23 -118 0 -1 5c5,0 6,2 6,6 0,1 0,3 0,4l-30 128c-1,4 -1,7 -1,10 0,4 2,7 9,7l45 0 1 -4c-5,0 -7,-2 -7,-6 0,-1 1,-3 1,-4l21 -93zm145 -35c1,-4 1,-6 1,-9 0,-4 -1,-9 -9,-9l-45 0 -1 5c5,0 7,2 7,6 0,1 -1,3 -1,4l-40 171c-1,4 -1,8 -1,11 0,4 2,7 9,7l45 0 1 -5c-5,0 -6,-2 -6,-5 0,-1 0,-3 0,-5l7 -29 39 0c42,0 61,-15 74,-77 3,-13 6,-27 6,-39 0,-27 -11,-46 -46,-46 -21,0 -25,3 -30,10l-8 12 -2 0 0 -2zm-25 108l16 -71c4,-16 8,-23 27,-23 13,0 17,8 17,20 0,7 -1,16 -3,25 -11,44 -18,49 -43,49l-14 0zm287 -108c1,-4 2,-6 2,-9 0,-4 -1,-9 -9,-9l-45 0 -1 5c5,0 6,2 6,6 0,1 0,3 0,4l-20 86c-3,13 -13,16 -23,16l-10 0c-5,-1 -9,-5 -9,-11 0,-3 1,-7 2,-11l17 -77c1,-4 2,-6 2,-9 0,-4 -1,-9 -9,-9l-45 0 -1 5c4,0 6,2 6,6 0,1 0,3 0,4l-19 82c-2,12 -4,21 -4,28 0,17 9,29 38,29 27,0 32,-3 38,-10l9 -12 2 0 -4 13c-4,16 -16,22 -36,22l-28 0c-13,0 -18,-4 -21,-11l-4 0c-5,25 -5,27 -5,29 0,13 12,19 28,19l50 0c37,0 53,-12 63,-54l30 -132zm123 41l-42 0 9 -41c1,-4 2,-6 2,-9 0,-4 -1,-9 -9,-9l-45 0 -1 5c4,0 6,2 6,6 0,1 0,3 0,4l-30 128c-1,4 -2,7 -2,10 0,4 3,7 9,7l46 0 1 -4c-5,0 -7,-2 -7,-6 0,-1 0,-3 1,-4l12 -53 42 0 -12 50c-1,4 -1,7 -1,10 0,4 2,7 9,7l45 0 1 -4c-5,0 -6,-2 -6,-6 0,-1 0,-3 0,-4l30 -128c1,-4 1,-6 1,-9 0,-4 -1,-9 -9,-9l-45 0 -1 5c5,0 7,2 7,6 0,1 -1,3 -1,4l-10 44zm96 -59l-1 5c5,0 7,2 7,6 0,1 0,3 -1,4l-29 128c-1,4 -1,7 -1,10 0,4 2,7 8,7l46 0 1 -4c-5,0 -7,-2 -7,-6 0,-1 0,-3 1,-4l22 -94c3,-12 10,-18 22,-18 12,0 16,5 16,13 0,0 -1,4 -1,5l-21 91c-1,4 -2,7 -2,10 0,4 3,7 9,7l46 0 1 -4c-5,0 -7,-2 -7,-6 0,-1 0,-3 1,-4l22 -94c2,-12 9,-18 22,-18 11,0 15,5 15,12 0,1 0,5 -1,6l-20 91c-1,4 -2,7 -2,10 0,4 2,7 9,7l45 0 1 -4c-4,0 -6,-2 -6,-6 0,-1 0,-3 0,-4l22 -94c1,-6 4,-20 4,-27 0,-15 -10,-27 -32,-27 -32,0 -38,2 -44,10l-10 13 -2 0c-2,-10 -9,-23 -30,-23 -27,0 -34,2 -39,10l-9 13 -3 0c1,-4 3,-9 3,-12 0,-4 -2,-9 -9,-9l-46 0zm311 18c1,-4 2,-6 2,-9 0,-4 -1,-9 -9,-9l-45 0 -1 5c4,0 6,2 6,6 0,1 0,3 0,4l-30 128c-1,4 -2,7 -2,10 0,4 3,7 9,7l46 0 1 -4c-5,0 -7,-2 -7,-6 0,-1 0,-3 1,-4l29 -128zm10 -28c5,-20 5,-25 5,-27 0,-6 -3,-7 -9,-7l-43 0c-5,22 -6,25 -6,26 0,6 2,8 10,8l43 0zm96 43c11,0 15,4 15,11 0,5 -3,11 -5,13 -4,3 -10,4 -14,4l-20 0 7 -28 17 0zm-31 59l20 0c15,0 16,8 16,13 0,3 -3,13 -8,17 -5,4 -13,4 -19,4l-17 0 8 -34zm49 -92l-85 0 -1 5c5,0 7,2 7,6 0,1 -1,3 -1,4l-29 128c-1,3 -2,6 -2,8 0,5 2,9 9,9l81 0c35,0 49,-15 55,-44 1,-4 1,-7 1,-11 0,-15 -8,-26 -21,-31 18,-4 26,-22 26,-39 0,-20 -13,-35 -40,-35l0 0zm59 143c-1,4 -2,7 -2,10 0,4 3,7 9,7l46 0 1 -4c-5,0 -7,-2 -7,-6 0,-1 0,-3 1,-4l14 -64 19 0c12,0 16,3 16,10 0,2 0,4 0,7l-11 44c-1,4 -1,7 -1,10 0,4 2,7 9,7l45 0 1 -4c-5,0 -7,-2 -7,-6 0,-1 1,-3 1,-4l14 -58c0,-3 0,-6 0,-10 0,-13 -10,-25 -33,-25l-8 0 47 -43c2,-1 2,-3 2,-5 0,-2 -1,-5 -5,-5l-45 0 -1 5c3,0 5,2 5,3 0,1 -1,3 -2,4l-38 37 18 -76c1,-3 1,-6 1,-8 0,-4 -1,-9 -9,-9l-45 0 -1 5c5,0 7,2 7,5 0,1 -1,3 -1,4l-40 173zm261 -17l-19 0c-13,0 -20,-2 -20,-12 0,-2 1,-6 1,-9 3,-13 11,-19 25,-19l22 0 -9 40zm37 -126l-78 0c-4,19 -5,22 -5,23 0,7 3,10 12,10l46 0c3,0 6,2 6,5 0,2 0,5 -2,11 0,3 -4,6 -8,6l-39 0c-31,0 -47,13 -56,49 -2,8 -2,15 -2,21 0,22 11,38 40,38 25,0 30,-3 35,-12l8 -14 4 0 -2 6c-1,4 -1,7 -1,10 0,4 2,7 9,7l45 0 1 -4c-5,0 -7,-2 -7,-6 0,-1 1,-3 1,-4l23 -97c1,-7 2,-14 2,-20 0,-17 -7,-29 -32,-29zm51 124c-5,25 -6,28 -6,29 0,5 3,7 9,7l17 0 -1 5c-1,4 -3,5 -8,5l-19 0c-2,8 -2,10 -2,11 0,3 4,4 8,4l20 0c12,0 14,-5 17,-15l7 -33c0,-2 1,-4 1,-5 0,-5 -3,-8 -10,-8l-33 0zm-3711 186l-58 0c-39,0 -65,18 -76,70 -4,14 -5,27 -5,35 0,32 14,45 43,45 19,0 26,0 32,-8l10 -14 2 1 -4 16c-3,16 -15,22 -35,22l-29 0c-13,0 -18,-3 -20,-11l-4 0c-5,23 -6,27 -6,29 0,13 12,19 29,19l49 0c37,0 54,-12 63,-54l28 -122c1,-4 2,-9 2,-11 0,-11 -4,-17 -21,-17zm-30 34l-14 60c-4,20 -14,22 -31,22 -10,0 -14,-5 -14,-15 0,-7 1,-14 4,-28 6,-26 13,-39 37,-39l18 0zm131 25l10 -42c1,-3 1,-6 1,-8 0,-5 -1,-9 -9,-9l-45 0 -1 4c5,0 7,2 7,6 0,1 -1,3 -1,4l-30 128c0,4 -1,8 -1,10 0,5 2,8 9,8l45 0 1 -5c-5,0 -6,-2 -6,-6 0,-1 0,-2 0,-4l13 -52 23 0c-1,7 -2,13 -2,19 0,37 28,50 64,50l8 0c50,0 68,-14 79,-60l5 -24c3,-8 4,-19 4,-27 0,-29 -10,-54 -60,-54l-11 0c-46,0 -67,15 -79,62l-24 0zm105 -28c15,0 21,7 21,19 0,7 -1,15 -4,24l-4 19c-7,26 -15,35 -35,35 -14,0 -21,-6 -21,-19 0,-5 1,-10 3,-17l5 -22c7,-33 15,-39 35,-39z"/>
   <path class="fil0" d="M1137 1454c59,0 73,-14 84,-60l4 -16c3,-12 5,-24 5,-32 0,-29 -7,-49 -51,-49 -20,0 -30,9 -37,21l-4 0 4 -12c4,-16 15,-26 31,-26l43 0c9,0 18,-2 20,-10l5 -23 -80 0c-42,0 -62,28 -77,97l-5 24c-3,13 -5,25 -5,35 0,32 16,51 63,51zm25 -123c15,0 20,6 20,18 0,6 -1,14 -4,24l-3 11c-7,26 -13,36 -32,36 -14,0 -23,-3 -23,-16 0,-5 2,-11 3,-20l4 -14c7,-33 15,-39 35,-39zm149 87c-9,0 -16,-2 -16,-13 0,-3 0,-5 1,-9l3 -16 73 0c8,0 16,-2 19,-8 5,-11 9,-31 9,-40 0,-32 -23,-43 -54,-43l-10 0c-52,0 -71,19 -85,84 -3,13 -6,25 -6,35 0,35 16,46 44,46l47 0c24,0 36,-3 40,-22l6 -24 -5 0c-5,8 -10,10 -32,10l-34 0zm-4 -69c4,-17 9,-29 30,-29 14,0 20,5 20,14 0,2 -1,6 -2,9l-1 6 -47 0zm191 103l40 0 1 -5c-4,0 -7,-3 -7,-9l-8 -136c0,-7 -5,-10 -13,-10l-45 0 -1 4c4,0 6,2 6,5 0,1 -1,4 -2,6l-71 129c-1,3 -2,5 -2,8 0,4 2,8 8,8l43 0 1 -5c-4,0 -7,-3 -7,-6 0,-1 1,-4 2,-6l38 -75 2 79c1,8 6,13 15,13zm146 -90l-16 0c-15,0 -17,-8 -17,-13 0,-3 3,-14 7,-18 4,-5 11,-5 18,-5l16 0 -8 36zm-16 72c-1,4 -2,8 -2,10 0,5 2,8 9,8l45 0 1 -5c-4,0 -6,-2 -6,-6 0,-1 0,-2 0,-4l30 -128c1,-3 1,-6 1,-8 0,-5 -1,-9 -9,-9l-68 0c-38,0 -55,14 -63,46 -1,5 -2,11 -2,16 0,17 8,30 23,38l-23 26 -16 0c-5,21 -5,24 -5,26 0,5 4,8 7,8l28 0c9,0 15,-5 21,-13l34 -44 4 0 -9 39zm96 -18c-6,24 -6,27 -6,28 0,5 3,8 8,8l18 0 -1 4c-1,5 -3,6 -8,6l-19 0c-2,8 -2,9 -2,10 0,3 4,4 8,4l20 0c11,0 14,-4 16,-14l8 -34c0,-1 0,-3 0,-4 0,-5 -3,-8 -9,-8l-33 0zm220 18c-1,4 -1,8 -1,10 0,5 2,8 9,8l45 0 1 -5c-5,0 -7,-2 -7,-6 0,-1 1,-2 1,-4l15 -64 18 0c12,0 17,3 17,10 0,2 0,4 -1,7l-10 44c-1,4 -2,8 -2,10 0,5 2,8 9,8l45 0 1 -5c-5,0 -6,-2 -6,-6 0,-1 0,-2 0,-4l14 -58c1,-2 1,-5 1,-10 0,-13 -11,-25 -34,-25l-8 0 47 -43c2,-1 3,-3 3,-5 0,-2 -2,-4 -6,-4l-44 0 -1 4c3,1 5,2 5,4 0,1 -1,2 -3,3l-38 38 18 -76c1,-4 2,-7 2,-9 0,-4 -2,-9 -9,-9l-46 0 -1 5c5,0 7,2 7,6 0,1 0,2 -1,4l-40 172zm257 18l40 0 1 -5c-5,0 -7,-3 -8,-9l-7 -136c-1,-7 -5,-10 -13,-10l-45 0 -1 4c4,0 5,2 5,5 0,1 0,4 -1,6l-71 129c-2,3 -3,5 -3,8 0,4 3,8 9,8l43 0 1 -5c-5,0 -7,-3 -7,-6 0,-1 0,-4 2,-6l38 -75 2 79c0,8 5,13 15,13zm122 -34c-9,0 -17,-2 -17,-13 0,-3 1,-5 1,-9l4 -16 73 0c8,0 15,-2 19,-8 4,-11 9,-31 9,-40 0,-32 -23,-43 -55,-43l-9 0c-52,0 -72,19 -86,84 -3,13 -5,25 -5,35 0,35 16,46 43,46l48 0c24,0 35,-3 40,-22l5 -24 -5 0c-4,8 -9,10 -31,10l-34 0zm-4 -69c3,-17 9,-29 29,-29 15,0 20,5 20,14 0,2 0,6 -1,9l-2 6 -46 0zm184 105c24,0 36,-3 40,-22l5 -24 -4 0c-5,8 -10,10 -32,10l-24 0c-10,0 -14,-5 -14,-14 0,-3 1,-8 4,-20l37 0c13,0 20,-3 22,-9l6 -23 -58 0c3,-18 13,-28 25,-28l26 0c13,0 20,-3 22,-10l6 -22 -70 0c-22,0 -47,12 -61,72 -4,17 -9,42 -9,49 0,28 7,41 37,41l42 0zm165 -130c10,0 14,4 14,11 0,5 -3,11 -5,14 -3,3 -10,3 -14,3l-19 0 6 -28 18 0zm-31 59l20 0c14,0 15,8 15,13 0,4 -3,14 -8,17 -5,4 -13,5 -19,5l-16 0 8 -35zm48 -91l-85 0 -1 4c5,0 7,2 7,6 0,1 0,3 -1,4l-29 128c-1,4 -1,6 -1,9 0,4 1,9 8,9l81 0c35,0 49,-16 55,-44 1,-4 1,-7 1,-12 0,-15 -8,-25 -21,-31 18,-4 26,-22 26,-39 0,-20 -13,-34 -40,-34l0 0zm139 17c1,-3 1,-6 1,-8 0,-5 -1,-9 -8,-9l-46 0 -1 4c5,0 7,2 7,6 0,1 -1,3 -1,4l-29 128c-1,4 -2,8 -2,10 0,5 2,8 9,8l45 0 1 -5c-5,0 -6,-2 -6,-6 0,-1 0,-2 0,-4l30 -128zm9 -28c5,-20 6,-25 6,-27 0,-6 -4,-7 -9,-7l-43 0c-5,23 -6,26 -6,27 0,5 2,7 9,7l43 0zm151 137c-10,0 -15,-5 -15,-13 0,-3 1,-7 2,-11l10 -43c3,-16 12,-25 24,-25l26 0c13,0 21,-4 22,-10l7 -24 -71 0c-24,0 -45,12 -60,72 -5,18 -10,43 -10,49 0,28 8,41 37,41l43 0c24,0 35,-3 40,-22l5 -24 -5 0c-4,8 -10,10 -32,10l-23 0zm249 -109c1,-3 2,-6 2,-8 0,-5 -1,-9 -9,-9l-45 0 -1 4c4,0 6,2 6,6 0,1 0,3 0,4l-20 86c-4,14 -13,16 -23,16l-10 0c-5,0 -9,-5 -9,-11 0,-2 1,-7 2,-11l17 -77c1,-3 2,-6 2,-8 0,-5 -1,-9 -9,-9l-46 0 0 4c4,0 6,2 6,6 0,1 0,3 -1,4l-18 82c-3,13 -4,21 -4,29 0,17 9,28 38,28 27,0 32,-2 38,-10l8 -12 3 0 -5 14c-3,16 -15,22 -35,22l-28 0c-13,0 -18,-4 -21,-11l-4 0c-5,24 -5,27 -5,29 0,12 12,18 28,18l50 0c36,0 53,-12 63,-54l30 -132zm46 -17l-1 4c3,0 5,2 5,5 0,1 0,2 0,3l-46 129c-2,5 -2,7 -2,10 0,5 3,9 11,9l39 0 1 -5c-4,0 -8,-4 -8,-7 0,-3 1,-4 2,-6l23 -72 9 77c1,7 5,13 14,13l29 0 37 -90 3 78c0,7 4,12 11,12l43 0 1 -5c-4,0 -9,-3 -9,-8l-8 -137c0,-7 -4,-10 -13,-10l-45 0 -1 4c3,0 6,2 6,5 0,2 -1,5 -2,6l-31 71 -8 -76c-1,-7 -5,-10 -13,-10l-47 0zm269 17c1,-3 2,-6 2,-8 0,-5 -1,-9 -9,-9l-46 0 0 4c4,0 6,2 6,6 0,1 0,3 -1,4l-29 128c-1,4 -2,8 -2,10 0,5 2,8 9,8l46 0 0 -5c-4,0 -6,-2 -6,-6 0,-1 0,-2 1,-4l29 -128zm10 -28c4,-20 5,-25 5,-27 0,-6 -3,-7 -9,-7l-43 0c-5,23 -6,26 -6,27 0,5 2,7 10,7l43 0zm226 171l1 -5c-4,0 -6,-2 -6,-6 0,-1 0,-3 0,-4l30 -128c1,-3 1,-6 1,-8 0,-5 -1,-9 -9,-9l-45 0 -1 4c5,0 7,2 7,6 0,1 -1,3 -1,4l-22 94c-3,12 -10,18 -22,18 -12,0 -16,-5 -16,-13 0,0 0,-4 1,-5l21 -91c1,-3 1,-6 1,-8 0,-5 -1,-9 -9,-9l-45 0 -1 4c5,0 7,2 7,6 0,1 -1,3 -1,4l-22 94c-3,12 -9,18 -22,18 -11,0 -15,-5 -15,-12 0,-1 0,-5 0,-6l21 -91c1,-3 2,-6 2,-8 0,-5 -2,-9 -9,-9l-46 0 -1 4c5,0 7,2 7,6 0,1 0,3 -1,4l-21 94c-2,6 -4,20 -4,27 0,15 10,27 32,27 32,0 38,-2 44,-10l9 -13 3 0c2,10 9,23 29,23 28,0 35,-2 40,-10l8 -13 3 0c-1,4 -2,9 -2,12 0,4 1,9 9,9l45 0zm116 -143c1,-3 2,-6 2,-8 0,-5 -2,-9 -9,-9l-46 0 -1 4c5,0 7,2 7,6 0,1 0,3 -1,4l-29 128c-1,4 -2,8 -2,10 0,5 2,8 9,8l46 0 0 -5c-4,0 -6,-2 -6,-6 0,-1 0,-2 0,-4l30 -128zm10 -28c4,-20 5,-25 5,-27 0,-6 -3,-7 -9,-7l-43 0c-5,23 -6,26 -6,27 0,5 2,7 10,7l43 0zm-2955 598l-1 5c7,1 9,5 9,10 0,3 -1,6 -1,9l-49 210c-1,5 -1,7 -1,10 0,5 3,10 11,10l62 0 1 -6c-5,-1 -8,-4 -8,-10 0,-2 0,-6 1,-9l44 -185 77 0c15,0 21,-3 24,-16l7 -28 -176 0zm166 234c-1,5 -1,7 -1,10 0,5 3,10 11,10l62 0 1 -6c-6,-1 -8,-4 -8,-11 0,-2 0,-5 1,-8l48 -210c1,-5 1,-7 1,-9 0,-6 -3,-10 -11,-10l-62 0 -1 5c7,1 8,5 8,12 0,2 0,7 0,8l-49 209zm232 -234l-1 5c5,0 8,5 8,11 0,3 0,5 -2,10l-93 173c-3,6 -7,11 -14,11l-10 0c-6,25 -7,30 -7,32 0,7 3,12 13,12l198 0c14,0 15,-6 18,-16l6 -28 -9 0c-7,0 -10,-4 -10,-13l-8 -180c-1,-9 -9,-17 -19,-17l-70 0zm36 210l-73 0 68 -138 5 138zm184 -46l56 0c52,0 71,-22 83,-72 4,-14 5,-29 5,-37 0,-38 -21,-55 -61,-55l-122 0 -1 5c6,1 9,5 9,10 0,3 -1,6 -2,9l-48 210c-1,5 -1,7 -1,10 0,5 3,10 11,10l62 0 1 -6c-6,-1 -8,-4 -8,-10 0,-2 0,-6 1,-9l15 -65zm28 -122l22 0c21,0 28,6 28,19 0,6 -1,11 -2,18 -8,33 -14,43 -38,43l-28 0 18 -80zm271 -46c-89,0 -114,44 -130,112 -6,28 -10,54 -10,70 0,57 27,79 91,79 88,0 109,-28 133,-131 4,-19 7,-37 7,-53 0,-49 -26,-77 -91,-77zm18 135c-15,64 -28,78 -59,78 -26,0 -37,-7 -37,-31 0,-13 4,-32 10,-58 14,-64 30,-76 62,-76 23,0 32,10 32,32 0,14 -3,32 -8,55zm90 103c-1,5 -1,7 -1,10 0,5 3,10 11,10l62 0 1 -6c-6,-1 -8,-4 -8,-11 0,-2 0,-5 1,-8l48 -210c1,-5 1,-7 1,-9 0,-6 -3,-10 -11,-10l-62 0 -1 5c6,1 8,5 8,12 0,2 0,7 0,8l-49 209zm175 -234c-6,27 -7,31 -7,34 0,5 5,8 12,8l57 0c16,0 24,6 24,17 0,1 0,5 -1,9 -4,18 -11,26 -32,26l-55 0c-6,24 -7,28 -7,31 0,6 3,10 12,10l44 0c15,0 23,7 23,24 0,2 -1,8 -2,12 -6,30 -17,35 -42,35l-41 0c-13,0 -17,-3 -20,-12l-6 0c-9,36 -10,42 -10,44 0,11 6,16 18,16l80 0c48,0 70,-17 82,-72 3,-10 4,-21 4,-25 0,-22 -12,-34 -28,-44 20,-4 31,-21 36,-44 2,-6 2,-14 2,-16 0,-32 -22,-53 -60,-53l-83 0zm307 -4c-88,0 -113,44 -129,112 -7,28 -10,54 -10,70 0,57 27,79 91,79 88,0 109,-28 133,-131 4,-19 7,-37 7,-53 0,-49 -26,-77 -92,-77zm19 135c-15,64 -28,78 -59,78 -26,0 -37,-7 -37,-31 0,-13 4,-32 10,-58 14,-64 30,-76 62,-76 23,0 32,10 32,32 0,14 -3,32 -8,55zm172 -131l-1 5c5,0 9,7 9,12 0,2 -1,4 -1,6l-114 205c-3,5 -4,10 -4,13 0,9 6,13 15,13l47 0 2 -6c-5,0 -9,-2 -9,-8 0,-3 2,-6 4,-11l78 -142 11 151c1,10 5,16 14,16l60 0 2 -6c-7,0 -12,-5 -13,-15l-17 -216c-1,-10 -6,-17 -19,-17l-64 0zm250 161l-17 73c-1,5 -1,7 -1,10 0,5 3,10 11,10l62 0 1 -6c-6,-1 -8,-4 -8,-11 0,-2 0,-5 1,-8l48 -211c1,-3 1,-4 1,-7 0,-8 -4,-11 -15,-11l-96 0c-53,0 -78,24 -89,74 -2,7 -3,17 -3,21 0,31 22,55 39,59l-40 46c-7,8 -9,10 -17,10l-9 0c-8,34 -9,36 -9,37 0,5 4,7 11,7l33 0c14,0 19,-5 30,-17l64 -76 3 0zm26 -113l-16 69 -20 0c-22,0 -32,-8 -32,-23 0,-3 1,-8 2,-13 6,-26 18,-33 43,-33l23 0zm242 206l11 27c5,12 8,15 16,15l15 0c9,0 12,-3 14,-13l18 -77 -25 0 44 -187c1,-5 1,-7 1,-9 0,-6 -3,-10 -11,-10l-62 0 -1 5c6,1 8,5 8,12 0,2 0,7 -1,8l-42 181 -73 0 43 -187c1,-5 1,-7 1,-9 0,-6 -3,-10 -11,-10l-62 0 -1 5c6,1 8,5 8,12 0,2 0,7 -1,8l-43 190c-2,8 -3,15 -3,20 0,15 7,19 27,19l130 0zm111 -20c-1,5 -1,7 -1,10 0,5 2,10 11,10l62 0 1 -6c-6,-1 -8,-4 -8,-11 0,-2 0,-5 1,-8l48 -210c1,-5 1,-7 1,-9 0,-6 -3,-10 -11,-10l-62 0 -1 5c6,1 8,5 8,12 0,2 0,7 -1,8l-48 209zm244 -73l-17 73c-1,5 -1,7 -1,10 0,5 3,10 11,10l62 0 1 -6c-6,-1 -8,-4 -8,-11 0,-2 0,-5 1,-8l48 -211c1,-3 1,-4 1,-7 0,-8 -4,-11 -15,-11l-96 0c-53,0 -78,24 -89,74 -2,7 -3,17 -3,21 0,31 22,55 39,59l-40 46c-7,8 -9,10 -17,10l-9 0c-8,34 -9,36 -9,37 0,5 4,7 11,7l33 0c14,0 19,-5 30,-17l64 -76 3 0zm26 -113l-16 69 -20 0c-22,0 -32,-8 -32,-23 0,-3 1,-8 2,-13 6,-26 18,-33 43,-33l23 0zm-2421 553l47 0c52,0 77,-23 92,-88 2,-11 3,-24 3,-30 0,-38 -26,-62 -72,-62l-28 0 4 -17c1,-5 2,-7 2,-9 0,-6 -3,-11 -11,-11l-63 0 -1 6c7,1 9,5 9,11 0,3 -1,7 -1,9l-3 11 -38 0c-52,0 -86,24 -100,89 -2,10 -4,24 -4,28 0,40 25,63 73,63l28 0 -5 18c-1,5 -1,7 -1,9 0,6 3,11 11,11l62 0 1 -6c-6,-1 -8,-5 -8,-11 0,-3 0,-5 1,-9l2 -12zm11 -44l21 -91 19 0c17,0 27,8 27,24 0,5 -2,13 -3,21 -7,30 -20,46 -43,46l-21 0zm-44 -91l-21 91 -19 0c-18,0 -26,-8 -26,-23 0,-3 1,-15 3,-22 7,-30 19,-46 42,-46l21 0zm264 -82l-60 0 -1 6c7,0 11,7 14,15l47 167 -3 8c-5,11 -12,14 -23,14l-18 0c-5,20 -6,26 -6,32 0,8 5,13 16,13l31 0c25,0 35,-12 45,-31l108 -202c2,-4 4,-8 4,-12 0,-6 -4,-10 -13,-10l-60 0 -1 6c6,0 8,4 8,9 0,2 0,5 -1,7l-43 88 -24 -92c-3,-11 -7,-18 -20,-18zm291 235c-1,5 -2,7 -2,9 0,6 3,11 11,11l63 0 1 -6c-7,-1 -9,-5 -9,-11 0,-3 1,-5 1,-9l49 -209c1,-5 1,-7 1,-9 0,-6 -3,-11 -11,-11l-62 0 -1 6c6,1 8,5 8,11 0,3 0,7 -1,9l-15 66 -75 0 17 -75c1,-5 1,-7 1,-9 0,-6 -3,-11 -11,-11l-62 0 -1 6c6,1 8,5 8,11 0,3 0,7 -1,9l-48 209c-1,5 -2,7 -2,9 0,6 3,11 11,11l63 0 1 -6c-7,-1 -9,-5 -9,-11 0,-2 1,-5 1,-9l22 -91 74 0 -22 100zm231 -235l-1 6c5,0 8,5 8,11 0,2 0,5 -2,9l-93 174c-3,6 -6,10 -13,10l-11 0c-6,26 -7,30 -7,32 0,7 3,13 13,13l198 0c14,0 16,-6 18,-16l6 -29 -9 0c-7,0 -10,-3 -10,-12l-8 -180c-1,-9 -9,-18 -19,-18l-70 0zm36 210l-73 0 68 -137 5 137zm296 45l1 -6c-7,0 -12,-5 -12,-11l-5 -221c0,-11 -9,-17 -19,-17l-73 0 -1 6c7,0 10,4 10,9 0,2 -1,4 -2,7l-126 215c-2,3 -3,6 -3,9 0,4 4,9 13,9l53 0 1 -6c-5,0 -7,-3 -7,-8 0,-3 1,-4 3,-7l23 -42 70 0 1 52c0,7 5,11 13,11l60 0zm-74 -188l0 83 -47 0 47 -83zm277 -67l-1 6c5,0 10,2 10,7 0,1 0,3 -1,4l-51 126 -15 -129c-2,-9 -5,-14 -16,-14l-58 0 -1 6c7,0 10,5 10,10 0,2 -1,4 -1,6l-79 210c-1,5 -2,9 -2,12 0,6 4,11 13,11l48 0 2 -6c-5,0 -9,-2 -9,-8 0,-3 1,-4 2,-8l47 -132 17 154 45 0 63 -156 3 141c0,7 4,15 10,15l61 0 1 -6c-9,0 -12,-5 -12,-18l-1 -214c0,-12 -6,-17 -17,-17l-68 0zm161 0l-2 6c7,1 9,4 9,10 0,2 0,5 -1,9l-49 211c0,3 -1,4 -1,7 0,8 5,12 16,12l116 0c22,0 27,-5 31,-20l9 -41 -6 0c-7,10 -13,13 -26,13l-67 0 12 -58c3,-11 8,-14 20,-14l47 0c14,0 23,-2 26,-17l6 -25 -85 0 11 -52 67 0c19,0 26,-3 29,-16l6 -25 -168 0zm320 235c-2,5 -2,7 -2,9 0,6 3,11 11,11l62 0 2 -6c-7,-1 -9,-5 -9,-11 0,-3 0,-5 1,-9l48 -209c2,-5 2,-7 2,-9 0,-6 -3,-11 -11,-11l-62 0 -2 6c7,1 9,5 9,11 0,3 0,7 -1,9l-15 66 -75 0 16 -75c2,-5 2,-7 2,-9 0,-6 -3,-11 -11,-11l-62 0 -2 6c7,1 9,5 9,11 0,3 0,7 -1,9l-48 209c-2,5 -2,7 -2,9 0,6 3,11 11,11l62 0 2 -6c-7,-1 -9,-5 -9,-11 0,-2 0,-5 1,-9l22 -91 74 0 -22 100zm263 -189l31 0c22,0 27,-4 31,-20l9 -38 -6 0c-7,10 -13,12 -25,12l-132 0c-22,0 -28,5 -31,21l-10 38 7 0c7,-10 13,-13 25,-13l36 0 -43 189c-1,5 -1,7 -1,9 0,6 3,11 11,11l62 0 1 -6c-6,-1 -8,-5 -8,-11 0,-3 0,-5 1,-9l42 -183z"/>
   <path class="fil0" d="M3222 2498c-1,5 -2,7 -2,9 0,6 3,11 11,11l63 0 1 -6c-7,-1 -9,-5 -9,-11 0,-3 1,-5 1,-9l48 -209c1,-5 2,-7 2,-9 0,-6 -3,-11 -11,-11l-63 0 -1 6c7,1 9,5 9,11 0,3 -1,7 -1,9l-48 209zm168 -235l-1 6c6,1 8,4 8,10 0,2 0,5 -1,9l-49 211c0,3 0,4 0,7 0,8 4,12 15,12l107 0c26,0 43,-5 58,-18 15,-13 28,-52 28,-75 0,-21 -4,-34 -28,-48 26,-4 39,-39 39,-60 0,-27 -17,-54 -61,-54l-115 0zm28 207l17 -72 33 0c18,0 24,12 24,23 0,10 -5,30 -10,36 -7,9 -14,13 -34,13l-30 0zm27 -113l11 -51 29 0c19,0 23,9 23,17 0,6 -3,21 -9,27 -5,5 -11,7 -24,7l-30 0z"/>
  </g>
 </g>
</svg>
