<?xml version="1.0" encoding="UTF-8"?>
<!DOCTYPE svg PUBLIC "-//W3C//DTD SVG 1.1//EN" "http://www.w3.org/Graphics/SVG/1.1/DTD/svg11.dtd">
<!-- Creator: CorelDRAW X7 -->
<svg xmlns="http://www.w3.org/2000/svg" xml:space="preserve" width="66.5092mm" height="4.39mm" version="1.1" style="shape-rendering:geometricPrecision; text-rendering:geometricPrecision; image-rendering:optimizeQuality; fill-rule:evenodd; clip-rule:evenodd"
viewBox="0 0 3363 222"
 xmlns:xlink="http://www.w3.org/1999/xlink">
 <defs>
  <style type="text/css">
   <![CDATA[
    .fil0 {fill:#E31E24;fill-rule:nonzero}
   ]]>
  </style>
 </defs>
 <g id="Слой_x0020_1">
  <metadata id="CorelCorpID_0Corel-Layer"/>
  <path class="fil0" d="M98 10l-1 5c4,0 7,4 7,9 0,2 -1,4 -2,8l-77 142c-2,5 -5,9 -11,9l-8 0c-5,21 -6,24 -6,26 0,6 2,10 11,10l162 0c12,0 13,-5 15,-13l5 -23 -7 0c-6,0 -8,-3 -9,-10l-6 -149c-1,-7 -7,-14 -16,-14l-57 0zm29 173l-60 0 56 -113 4 113zm117 -173l-1 5c5,0 7,3 7,8 0,2 0,4 -1,7l-40 174c0,2 0,3 0,6 0,6 3,9 12,9l96 0c18,0 22,-3 25,-16l8 -33 -6 0c-5,7 -10,10 -20,10l-56 0 10 -47c2,-10 7,-12 17,-12l39 0c11,0 18,-2 21,-14l5 -21 -70 0 9 -43 55 0c15,0 21,-2 24,-12l5 -21 -139 0zm323 173l-13 0c-5,0 -7,-1 -9,-9l-22 -87 61 -55c5,-4 8,-9 8,-14 0,-4 -5,-8 -13,-8l-51 0 -1 5c4,0 6,2 6,5 0,3 -1,5 -3,7l-58 50 12 -51c1,-4 1,-6 1,-8 0,-4 -2,-8 -9,-8l-51 0 -1 5c6,0 7,3 7,9 0,2 0,6 0,7l-40 172c-1,4 -2,6 -2,8 0,4 3,8 9,8l52 0 1 -5c-6,0 -7,-3 -7,-8 0,-3 0,-5 1,-8l14 -62 23 -20 21 87c3,10 8,16 16,16l27 0c11,0 13,-3 15,-9l6 -27zm141 -176c-73,0 -94,36 -107,92 -5,23 -8,44 -8,58 0,46 23,65 75,65 72,0 89,-23 109,-108 3,-16 6,-31 6,-43 0,-41 -21,-64 -75,-64zm15 111c-12,53 -23,65 -49,65 -21,0 -30,-6 -30,-26 0,-11 3,-26 8,-48 12,-53 25,-63 51,-63 19,0 26,9 26,27 0,11 -2,26 -6,45zm142 28l46 0c43,0 59,-19 68,-60 3,-11 5,-24 5,-31 0,-31 -18,-45 -51,-45l-100 0 -1 5c5,0 7,3 7,8 0,2 0,4 -1,7l-40 173c-1,4 -1,6 -1,8 0,4 3,8 9,8l52 0 0 -5c-4,0 -7,-3 -7,-8 0,-2 1,-5 1,-8l13 -52zm23 -101l18 0c17,0 23,5 23,16 0,5 -1,9 -2,15 -6,27 -11,35 -31,35l-23 0 15 -66zm266 174l1 -5c-5,0 -9,-4 -9,-9l-4 -181c-1,-9 -8,-14 -16,-14l-60 0 -1 5c5,0 8,3 8,7 0,2 -1,3 -2,6l-103 177c-2,2 -3,5 -3,7 0,4 4,7 11,7l43 0 2 -5c-5,0 -6,-2 -6,-6 0,-2 1,-3 2,-6l19 -34 58 0 1 43c0,5 4,8 10,8l49 0zm-60 -154l0 68 -38 0 38 -68zm189 -17l26 0c18,0 22,-4 25,-16l8 -32 -5 0c-6,8 -10,10 -21,10l-108 0c-18,0 -23,4 -26,17l-8 31 6 0c6,-8 10,-10 21,-10l29 0 -35 155c-1,4 -2,6 -2,8 0,4 3,8 10,8l51 0 1 -5c-5,0 -7,-3 -7,-8 0,-3 0,-5 1,-8l34 -150zm141 -22c1,-4 1,-6 1,-8 0,-4 -2,-8 -9,-8l-51 0 -1 5c6,0 7,3 7,9 0,2 0,6 0,7l-40 172c-1,4 -2,6 -2,8 0,4 3,8 9,8l52 0 1 -5c-6,0 -7,-3 -7,-8 0,-3 0,-5 0,-8l83 -92 -22 97c-1,4 -1,6 -1,8 0,4 2,8 9,8l51 0 1 -5c-5,0 -7,-3 -7,-8 0,-3 0,-5 1,-8l40 -172c0,-4 1,-6 1,-8 0,-4 -3,-8 -9,-8l-52 0 -1 5c6,0 7,3 7,9 0,2 0,6 0,7l-83 93 22 -98zm159 -16l-1 5c5,0 7,3 7,8 0,2 0,4 -1,7l-40 174c0,2 0,3 0,6 0,6 3,9 12,9l89 0c21,0 34,-3 47,-14 12,-11 23,-43 23,-62 0,-17 -3,-28 -23,-40 21,-3 32,-31 32,-48 0,-23 -14,-45 -50,-45l-95 0zm23 170l14 -59 27 0c16,0 20,9 20,19 0,8 -4,24 -8,30 -6,6 -12,10 -28,10l-25 0zm22 -93l10 -42 23 0c16,0 19,7 19,14 0,5 -2,17 -7,22 -4,5 -10,6 -20,6l-25 0zm231 116c-1,4 -1,6 -1,8 0,4 2,8 9,8l51 0 1 -5c-5,0 -7,-3 -7,-8 0,-3 0,-5 1,-8l40 -172c1,-4 1,-6 1,-8 0,-4 -2,-8 -9,-8l-51 0 -1 5c5,0 7,3 7,9 0,2 -1,6 -1,7l-13 55 -62 0 14 -62c1,-4 2,-6 2,-8 0,-4 -3,-8 -9,-8l-52 0 -1 4c6,1 7,4 7,10 0,2 0,5 0,7l-40 172c-1,4 -1,5 -1,7 0,5 2,9 9,9l51 0 1 -5c-5,-1 -7,-4 -7,-9 0,-2 0,-4 1,-7l17 -75 62 0 -19 82zm265 16l1 -5c-6,0 -10,-4 -10,-9l-4 -181c0,-9 -7,-14 -16,-14l-59 0 -2 5c6,0 8,3 8,7 0,2 0,3 -1,6l-104 177c-2,2 -2,5 -2,7 0,4 3,7 10,7l44 0 1 -5c-4,0 -6,-2 -6,-6 0,-2 1,-3 2,-6l19 -34 58 0 1 43c0,5 4,8 11,8l49 0zm-61 -154l0 68 -38 0 38 -68zm311 -16l-36 154c-1,4 -1,6 -1,8 0,4 2,8 9,8l51 0 1 -5c-5,0 -7,-3 -7,-8 0,-3 0,-5 1,-8l39 -169c1,-4 1,-8 1,-9 0,-7 -3,-10 -11,-10l-163 0 -1 5c6,0 7,3 7,8 0,2 0,4 0,7l-40 173c-1,4 -1,6 -1,8 0,4 2,8 9,8l51 0 1 -5c-5,0 -7,-3 -7,-8 0,-2 0,-5 1,-8l35 -149 61 0zm139 -39l-1 5c4,0 8,5 8,10 0,1 -1,3 -1,4l-94 169c-2,4 -3,8 -3,11 0,7 5,10 13,10l38 0 2 -5c-4,0 -8,-1 -8,-6 0,-2 2,-5 4,-9l64 -117 9 124c0,8 4,13 12,13l49 0 1 -5c-5,0 -10,-4 -10,-12l-15 -177c0,-9 -5,-15 -15,-15l-53 0zm203 16c1,-4 1,-6 1,-8 0,-4 -2,-8 -9,-8l-51 0 -1 5c6,0 7,3 7,9 0,2 0,6 0,7l-40 172c-1,4 -2,6 -2,8 0,4 3,8 9,8l52 0 1 -5c-6,0 -7,-3 -7,-8 0,-3 0,-5 1,-8l82 -92 -22 97c-1,4 -1,6 -1,8 0,4 2,8 9,8l51 0 1 -5c-5,0 -7,-3 -7,-8 0,-3 0,-5 1,-8l40 -172c0,-4 1,-6 1,-8 0,-4 -3,-8 -9,-8l-52 0 0 5c5,0 6,3 6,9 0,2 0,6 0,7l-83 93 22 -98zm238 22l25 0c19,0 23,-4 26,-16l7 -32 -5 0c-6,8 -10,10 -21,10l-108 0c-18,0 -23,4 -26,17l-7 31 5 0c6,-8 11,-10 21,-10l29 0 -35 155c-1,4 -1,6 -1,8 0,4 2,8 9,8l51 0 1 -5c-5,0 -7,-3 -7,-8 0,-3 0,-5 1,-8l35 -150zm223 135l-13 0c-5,0 -7,-1 -9,-9l-22 -87 61 -55c5,-4 8,-9 8,-14 0,-4 -5,-8 -13,-8l-51 0 -1 5c4,0 6,2 6,5 0,3 0,5 -3,7l-57 50 11 -51c1,-4 2,-6 2,-8 0,-4 -3,-8 -10,-8l-51 0 -1 5c6,0 7,3 7,9 0,2 0,6 0,7l-40 172c-1,4 -2,6 -2,8 0,4 3,8 10,8l51 0 1 -5c-5,0 -7,-3 -7,-8 0,-3 0,-5 1,-8l14 -62 23 -20 21 87c3,10 8,16 17,16l26 0c11,0 14,-3 15,-9l6 -27zm185 36l1 -5c-6,0 -10,-4 -10,-9l-4 -181c0,-9 -7,-14 -16,-14l-59 0 -2 5c6,0 9,3 9,7 0,2 -1,3 -2,6l-104 177c-2,2 -2,5 -2,7 0,4 3,7 10,7l44 0 1 -5c-4,0 -6,-2 -6,-6 0,-2 1,-3 2,-6l20 -34 57 0 1 43c0,5 4,8 11,8l49 0zm-61 -154l0 68 -38 0 38 -68z"/>
 </g>
</svg>
